<?xml version="1.0" encoding="utf-8" standalone="no"?>
<!DOCTYPE svg PUBLIC "-//W3C//DTD SVG 1.1//EN"
  "http://www.w3.org/Graphics/SVG/1.1/DTD/svg11.dtd">
<svg xmlns:xlink="http://www.w3.org/1999/xlink" width="655.661344pt" height="409.439644pt" viewBox="0 0 655.661344 409.439644" xmlns="http://www.w3.org/2000/svg" version="1.1">
 <metadata>
  <rdf:RDF xmlns:dc="http://purl.org/dc/elements/1.1/" xmlns:cc="http://creativecommons.org/ns#" xmlns:rdf="http://www.w3.org/1999/02/22-rdf-syntax-ns#">
   <cc:Work>
    <dc:type rdf:resource="http://purl.org/dc/dcmitype/StillImage"/>
    <dc:date>2026-06-08T21:36:47.385423</dc:date>
    <dc:format>image/svg+xml</dc:format>
    <dc:creator>
     <cc:Agent>
      <dc:title>Matplotlib v3.9.0, https://matplotlib.org/</dc:title>
     </cc:Agent>
    </dc:creator>
   </cc:Work>
  </rdf:RDF>
 </metadata>
 <defs>
  <style type="text/css">*{stroke-linejoin: round; stroke-linecap: butt}</style>
 </defs>
 <g id="figure_1">
  <g id="patch_1">
   <path d="M -0 409.439644 
L 655.661344 409.439644 
L 655.661344 0 
L -0 0 
z
" style="fill: #ffffff"/>
  </g>
  <g id="axes_1">
   <g id="patch_2">
    <path d="M 47.117344 165.475862 
L 648.461344 165.475862 
L 648.461344 7.2 
L 47.117344 7.2 
z
" style="fill: #ffffff"/>
   </g>
   <g id="line2d_1">
    <path d="M 47.117344 112.517159 
L 648.461344 112.517159 
" clip-path="url(#p6340c2a1d5)" style="fill: none; stroke-dasharray: 3.7,1.6; stroke-dashoffset: 0; stroke: #767676"/>
   </g>
   <g id="patch_3">
    <path d="M 50.391989 165.475862 
L 55.7505 165.475862 
L 55.7505 32.277365 
L 50.391989 32.277365 
z
" clip-path="url(#p6340c2a1d5)" style="fill: #3775ba"/>
   </g>
   <g id="patch_4">
    <path d="M 56.34589 165.475862 
L 61.704401 165.475862 
L 61.704401 51.601643 
L 56.34589 51.601643 
z
" clip-path="url(#p6340c2a1d5)" style="fill: #3775ba"/>
   </g>
   <g id="patch_5">
    <path d="M 62.299791 165.475862 
L 67.658302 165.475862 
L 67.658302 66.377559 
L 62.299791 66.377559 
z
" clip-path="url(#p6340c2a1d5)" style="fill: #3775ba"/>
   </g>
   <g id="patch_6">
    <path d="M 68.253692 165.475862 
L 73.612203 165.475862 
L 73.612203 71.071343 
L 68.253692 71.071343 
z
" clip-path="url(#p6340c2a1d5)" style="fill: #3775ba"/>
   </g>
   <g id="patch_7">
    <path d="M 74.207593 165.475862 
L 79.566104 165.475862 
L 79.566104 72.579515 
L 74.207593 72.579515 
z
" clip-path="url(#p6340c2a1d5)" style="fill: #3775ba"/>
   </g>
   <g id="patch_8">
    <path d="M 80.161494 165.475862 
L 85.520005 165.475862 
L 85.520005 91.386931 
L 80.161494 91.386931 
z
" clip-path="url(#p6340c2a1d5)" style="fill: #3775ba"/>
   </g>
   <g id="patch_9">
    <path d="M 86.115395 165.475862 
L 91.473906 165.475862 
L 91.473906 85.224891 
L 86.115395 85.224891 
z
" clip-path="url(#p6340c2a1d5)" style="fill: #3775ba"/>
   </g>
   <g id="patch_10">
    <path d="M 92.069296 165.475862 
L 97.427807 165.475862 
L 97.427807 83.705709 
L 92.069296 83.705709 
z
" clip-path="url(#p6340c2a1d5)" style="fill: #3775ba"/>
   </g>
   <g id="patch_11">
    <path d="M 98.023197 165.475862 
L 103.381708 165.475862 
L 103.381708 96.620177 
L 98.023197 96.620177 
z
" clip-path="url(#p6340c2a1d5)" style="fill: #3775ba"/>
   </g>
   <g id="patch_12">
    <path d="M 103.977098 165.475862 
L 109.335609 165.475862 
L 109.335609 100.488938 
L 103.977098 100.488938 
z
" clip-path="url(#p6340c2a1d5)" style="fill: #3775ba"/>
   </g>
   <g id="patch_13">
    <path d="M 109.930999 165.475862 
L 115.28951 165.475862 
L 115.28951 101.759119 
L 109.930999 101.759119 
z
" clip-path="url(#p6340c2a1d5)" style="fill: #3775ba"/>
   </g>
   <g id="patch_14">
    <path d="M 115.8849 165.475862 
L 121.243411 165.475862 
L 121.243411 87.744823 
L 115.8849 87.744823 
z
" clip-path="url(#p6340c2a1d5)" style="fill: #3775ba"/>
   </g>
   <g id="patch_15">
    <path d="M 121.838801 165.475862 
L 127.197312 165.475862 
L 127.197312 94.278671 
L 121.838801 94.278671 
z
" clip-path="url(#p6340c2a1d5)" style="fill: #3775ba"/>
   </g>
   <g id="patch_16">
    <path d="M 127.792702 165.475862 
L 133.151213 165.475862 
L 133.151213 90.592504 
L 127.792702 90.592504 
z
" clip-path="url(#p6340c2a1d5)" style="fill: #3775ba"/>
   </g>
   <g id="patch_17">
    <path d="M 133.746603 165.475862 
L 139.105114 165.475862 
L 139.105114 117.26232 
L 133.746603 117.26232 
z
" clip-path="url(#p6340c2a1d5)" style="fill: #3775ba"/>
   </g>
   <g id="patch_18">
    <path d="M 139.700504 165.475862 
L 145.059015 165.475862 
L 145.059015 106.692508 
L 139.700504 106.692508 
z
" clip-path="url(#p6340c2a1d5)" style="fill: #3775ba"/>
   </g>
   <g id="patch_19">
    <path d="M 145.654405 165.475862 
L 151.012916 165.475862 
L 151.012916 88.505733 
L 145.654405 88.505733 
z
" clip-path="url(#p6340c2a1d5)" style="fill: #3775ba"/>
   </g>
   <g id="patch_20">
    <path d="M 151.608306 165.475862 
L 156.966817 165.475862 
L 156.966817 105.757109 
L 151.608306 105.757109 
z
" clip-path="url(#p6340c2a1d5)" style="fill: #3775ba"/>
   </g>
   <g id="patch_21">
    <path d="M 157.562207 165.475862 
L 162.920718 165.475862 
L 162.920718 97.934058 
L 157.562207 97.934058 
z
" clip-path="url(#p6340c2a1d5)" style="fill: #3775ba"/>
   </g>
   <g id="patch_22">
    <path d="M 163.516108 165.475862 
L 168.874619 165.475862 
L 168.874619 100.362224 
L 163.516108 100.362224 
z
" clip-path="url(#p6340c2a1d5)" style="fill: #3775ba"/>
   </g>
   <g id="patch_23">
    <path d="M 169.470009 165.475862 
L 174.82852 165.475862 
L 174.82852 105.560486 
L 169.470009 105.560486 
z
" clip-path="url(#p6340c2a1d5)" style="fill: #3775ba"/>
   </g>
   <g id="patch_24">
    <path d="M 175.42391 165.475862 
L 180.782421 165.475862 
L 180.782421 100.079806 
L 175.42391 100.079806 
z
" clip-path="url(#p6340c2a1d5)" style="fill: #3775ba"/>
   </g>
   <g id="patch_25">
    <path d="M 181.377811 165.475862 
L 186.736322 165.475862 
L 186.736322 102.885475 
L 181.377811 102.885475 
z
" clip-path="url(#p6340c2a1d5)" style="fill: #3775ba"/>
   </g>
   <g id="patch_26">
    <path d="M 187.331712 165.475862 
L 192.690223 165.475862 
L 192.690223 104.722626 
L 187.331712 104.722626 
z
" clip-path="url(#p6340c2a1d5)" style="fill: #3775ba"/>
   </g>
   <g id="patch_27">
    <path d="M 193.285613 165.475862 
L 198.644124 165.475862 
L 198.644124 124.199818 
L 193.285613 124.199818 
z
" clip-path="url(#p6340c2a1d5)" style="fill: #3775ba"/>
   </g>
   <g id="patch_28">
    <path d="M 199.239514 165.475862 
L 204.598025 165.475862 
L 204.598025 109.501854 
L 199.239514 109.501854 
z
" clip-path="url(#p6340c2a1d5)" style="fill: #3775ba"/>
   </g>
   <g id="patch_29">
    <path d="M 205.193415 165.475862 
L 210.551926 165.475862 
L 210.551926 114.945332 
L 205.193415 114.945332 
z
" clip-path="url(#p6340c2a1d5)" style="fill: #3775ba"/>
   </g>
   <g id="patch_30">
    <path d="M 211.147316 165.475862 
L 216.505827 165.475862 
L 216.505827 107.489572 
L 211.147316 107.489572 
z
" clip-path="url(#p6340c2a1d5)" style="fill: #3775ba"/>
   </g>
   <g id="patch_31">
    <path d="M 217.101217 165.475862 
L 222.459728 165.475862 
L 222.459728 110.534877 
L 217.101217 110.534877 
z
" clip-path="url(#p6340c2a1d5)" style="fill: #3775ba"/>
   </g>
   <g id="patch_32">
    <path d="M 223.055118 165.475862 
L 228.413629 165.475862 
L 228.413629 112.501004 
L 223.055118 112.501004 
z
" clip-path="url(#p6340c2a1d5)" style="fill: #3775ba"/>
   </g>
   <g id="patch_33">
    <path d="M 229.009019 165.475862 
L 234.36753 165.475862 
L 234.36753 118.465023 
L 229.009019 118.465023 
z
" clip-path="url(#p6340c2a1d5)" style="fill: #3775ba"/>
   </g>
   <g id="patch_34">
    <path d="M 234.96292 165.475862 
L 240.321431 165.475862 
L 240.321431 111.549267 
L 234.96292 111.549267 
z
" clip-path="url(#p6340c2a1d5)" style="fill: #3775ba"/>
   </g>
   <g id="patch_35">
    <path d="M 240.916821 165.475862 
L 246.275332 165.475862 
L 246.275332 112.988601 
L 240.916821 112.988601 
z
" clip-path="url(#p6340c2a1d5)" style="fill: #3775ba"/>
   </g>
   <g id="patch_36">
    <path d="M 246.870722 165.475862 
L 252.229233 165.475862 
L 252.229233 113.395593 
L 246.870722 113.395593 
z
" clip-path="url(#p6340c2a1d5)" style="fill: #3775ba"/>
   </g>
   <g id="patch_37">
    <path d="M 252.824623 165.475862 
L 258.183134 165.475862 
L 258.183134 116.155994 
L 252.824623 116.155994 
z
" clip-path="url(#p6340c2a1d5)" style="fill: #3775ba"/>
   </g>
   <g id="patch_38">
    <path d="M 258.778524 165.475862 
L 264.137035 165.475862 
L 264.137035 131.22205 
L 258.778524 131.22205 
z
" clip-path="url(#p6340c2a1d5)" style="fill: #3775ba"/>
   </g>
   <g id="patch_39">
    <path d="M 264.732425 165.475862 
L 270.090936 165.475862 
L 270.090936 127.117263 
L 264.732425 127.117263 
z
" clip-path="url(#p6340c2a1d5)" style="fill: #3775ba"/>
   </g>
   <g id="patch_40">
    <path d="M 270.686326 165.475862 
L 276.044837 165.475862 
L 276.044837 116.850336 
L 270.686326 116.850336 
z
" clip-path="url(#p6340c2a1d5)" style="fill: #3775ba"/>
   </g>
   <g id="patch_41">
    <path d="M 276.640227 165.475862 
L 281.998738 165.475862 
L 281.998738 116.03152 
L 276.640227 116.03152 
z
" clip-path="url(#p6340c2a1d5)" style="fill: #3775ba"/>
   </g>
   <g id="patch_42">
    <path d="M 282.594128 165.475862 
L 287.952639 165.475862 
L 287.952639 118.376841 
L 282.594128 118.376841 
z
" clip-path="url(#p6340c2a1d5)" style="fill: #3775ba"/>
   </g>
   <g id="patch_43">
    <path d="M 288.548029 165.475862 
L 293.90654 165.475862 
L 293.90654 116.418428 
L 288.548029 116.418428 
z
" clip-path="url(#p6340c2a1d5)" style="fill: #3775ba"/>
   </g>
   <g id="patch_44">
    <path d="M 294.50193 165.475862 
L 299.860441 165.475862 
L 299.860441 130.283165 
L 294.50193 130.283165 
z
" clip-path="url(#p6340c2a1d5)" style="fill: #3775ba"/>
   </g>
   <g id="patch_45">
    <path d="M 300.455831 165.475862 
L 305.814342 165.475862 
L 305.814342 125.356611 
L 300.455831 125.356611 
z
" clip-path="url(#p6340c2a1d5)" style="fill: #3775ba"/>
   </g>
   <g id="patch_46">
    <path d="M 306.409732 165.475862 
L 311.768243 165.475862 
L 311.768243 139.389102 
L 306.409732 139.389102 
z
" clip-path="url(#p6340c2a1d5)" style="fill: #3775ba"/>
   </g>
   <g id="patch_47">
    <path d="M 312.363633 165.475862 
L 317.722144 165.475862 
L 317.722144 132.927036 
L 312.363633 132.927036 
z
" clip-path="url(#p6340c2a1d5)" style="fill: #3775ba"/>
   </g>
   <g id="patch_48">
    <path d="M 318.317534 165.475862 
L 323.676045 165.475862 
L 323.676045 134.142767 
L 318.317534 134.142767 
z
" clip-path="url(#p6340c2a1d5)" style="fill: #3775ba"/>
   </g>
   <g id="patch_49">
    <path d="M 324.271435 165.475862 
L 329.629946 165.475862 
L 329.629946 123.001695 
L 324.271435 123.001695 
z
" clip-path="url(#p6340c2a1d5)" style="fill: #3775ba"/>
   </g>
   <g id="patch_50">
    <path d="M 330.225336 165.475862 
L 335.583847 165.475862 
L 335.583847 138.907546 
L 330.225336 138.907546 
z
" clip-path="url(#p6340c2a1d5)" style="fill: #3775ba"/>
   </g>
   <g id="patch_51">
    <path d="M 336.179237 165.475862 
L 341.537748 165.475862 
L 341.537748 124.506129 
L 336.179237 124.506129 
z
" clip-path="url(#p6340c2a1d5)" style="fill: #3775ba"/>
   </g>
   <g id="patch_52">
    <path d="M 342.133138 165.475862 
L 347.491649 165.475862 
L 347.491649 128.90017 
L 342.133138 128.90017 
z
" clip-path="url(#p6340c2a1d5)" style="fill: #3775ba"/>
   </g>
   <g id="patch_53">
    <path d="M 348.087039 165.475862 
L 353.44555 165.475862 
L 353.44555 124.750099 
L 348.087039 124.750099 
z
" clip-path="url(#p6340c2a1d5)" style="fill: #3775ba"/>
   </g>
   <g id="patch_54">
    <path d="M 354.04094 165.475862 
L 359.399451 165.475862 
L 359.399451 124.648171 
L 354.04094 124.648171 
z
" clip-path="url(#p6340c2a1d5)" style="fill: #3775ba"/>
   </g>
   <g id="patch_55">
    <path d="M 359.994841 165.475862 
L 365.353352 165.475862 
L 365.353352 127.24705 
L 359.994841 127.24705 
z
" clip-path="url(#p6340c2a1d5)" style="fill: #3775ba"/>
   </g>
   <g id="patch_56">
    <path d="M 365.948742 165.475862 
L 371.307253 165.475862 
L 371.307253 129.710828 
L 365.948742 129.710828 
z
" clip-path="url(#p6340c2a1d5)" style="fill: #3775ba"/>
   </g>
   <g id="patch_57">
    <path d="M 371.902643 165.475862 
L 377.261154 165.475862 
L 377.261154 143.130943 
L 371.902643 143.130943 
z
" clip-path="url(#p6340c2a1d5)" style="fill: #3775ba"/>
   </g>
   <g id="patch_58">
    <path d="M 377.856544 165.475862 
L 383.215055 165.475862 
L 383.215055 128.014657 
L 377.856544 128.014657 
z
" clip-path="url(#p6340c2a1d5)" style="fill: #3775ba"/>
   </g>
   <g id="patch_59">
    <path d="M 383.810445 165.475862 
L 389.168956 165.475862 
L 389.168956 129.705346 
L 383.810445 129.705346 
z
" clip-path="url(#p6340c2a1d5)" style="fill: #3775ba"/>
   </g>
   <g id="patch_60">
    <path d="M 389.764346 165.475862 
L 395.122857 165.475862 
L 395.122857 131.880184 
L 389.764346 131.880184 
z
" clip-path="url(#p6340c2a1d5)" style="fill: #3775ba"/>
   </g>
   <g id="patch_61">
    <path d="M 395.718247 165.475862 
L 401.076758 165.475862 
L 401.076758 130.146566 
L 395.718247 130.146566 
z
" clip-path="url(#p6340c2a1d5)" style="fill: #3775ba"/>
   </g>
   <g id="patch_62">
    <path d="M 401.672148 165.475862 
L 407.030659 165.475862 
L 407.030659 138.408672 
L 401.672148 138.408672 
z
" clip-path="url(#p6340c2a1d5)" style="fill: #3775ba"/>
   </g>
   <g id="patch_63">
    <path d="M 407.626049 165.475862 
L 412.98456 165.475862 
L 412.98456 136.66419 
L 407.626049 136.66419 
z
" clip-path="url(#p6340c2a1d5)" style="fill: #3775ba"/>
   </g>
   <g id="patch_64">
    <path d="M 413.57995 165.475862 
L 418.938461 165.475862 
L 418.938461 141.354748 
L 413.57995 141.354748 
z
" clip-path="url(#p6340c2a1d5)" style="fill: #3775ba"/>
   </g>
   <g id="patch_65">
    <path d="M 419.533851 165.475862 
L 424.892362 165.475862 
L 424.892362 138.311424 
L 419.533851 138.311424 
z
" clip-path="url(#p6340c2a1d5)" style="fill: #3775ba"/>
   </g>
   <g id="patch_66">
    <path d="M 425.487752 165.475862 
L 430.846263 165.475862 
L 430.846263 138.458145 
L 425.487752 138.458145 
z
" clip-path="url(#p6340c2a1d5)" style="fill: #3775ba"/>
   </g>
   <g id="patch_67">
    <path d="M 431.441653 165.475862 
L 436.800164 165.475862 
L 436.800164 135.429431 
L 431.441653 135.429431 
z
" clip-path="url(#p6340c2a1d5)" style="fill: #3775ba"/>
   </g>
   <g id="patch_68">
    <path d="M 437.395554 165.475862 
L 442.754065 165.475862 
L 442.754065 133.873093 
L 437.395554 133.873093 
z
" clip-path="url(#p6340c2a1d5)" style="fill: #3775ba"/>
   </g>
   <g id="patch_69">
    <path d="M 443.349455 165.475862 
L 448.707966 165.475862 
L 448.707966 133.990609 
L 443.349455 133.990609 
z
" clip-path="url(#p6340c2a1d5)" style="fill: #3775ba"/>
   </g>
   <g id="patch_70">
    <path d="M 449.303356 165.475862 
L 454.661867 165.475862 
L 454.661867 136.360938 
L 449.303356 136.360938 
z
" clip-path="url(#p6340c2a1d5)" style="fill: #3775ba"/>
   </g>
   <g id="patch_71">
    <path d="M 455.257257 165.475862 
L 460.615768 165.475862 
L 460.615768 138.971109 
L 455.257257 138.971109 
z
" clip-path="url(#p6340c2a1d5)" style="fill: #3775ba"/>
   </g>
   <g id="patch_72">
    <path d="M 461.211158 165.475862 
L 466.569669 165.475862 
L 466.569669 138.8424 
L 461.211158 138.8424 
z
" clip-path="url(#p6340c2a1d5)" style="fill: #3775ba"/>
   </g>
   <g id="patch_73">
    <path d="M 467.165059 165.475862 
L 472.523569 165.475862 
L 472.523569 138.757231 
L 467.165059 138.757231 
z
" clip-path="url(#p6340c2a1d5)" style="fill: #3775ba"/>
   </g>
   <g id="patch_74">
    <path d="M 473.11896 165.475862 
L 478.47747 165.475862 
L 478.47747 142.310216 
L 473.11896 142.310216 
z
" clip-path="url(#p6340c2a1d5)" style="fill: #3775ba"/>
   </g>
   <g id="patch_75">
    <path d="M 479.072861 165.475862 
L 484.431371 165.475862 
L 484.431371 138.429376 
L 479.072861 138.429376 
z
" clip-path="url(#p6340c2a1d5)" style="fill: #3775ba"/>
   </g>
   <g id="patch_76">
    <path d="M 485.026762 165.475862 
L 490.385272 165.475862 
L 490.385272 143.639579 
L 485.026762 143.639579 
z
" clip-path="url(#p6340c2a1d5)" style="fill: #3775ba"/>
   </g>
   <g id="patch_77">
    <path d="M 490.980663 165.475862 
L 496.339173 165.475862 
L 496.339173 140.80865 
L 490.980663 140.80865 
z
" clip-path="url(#p6340c2a1d5)" style="fill: #3775ba"/>
   </g>
   <g id="patch_78">
    <path d="M 496.934564 165.475862 
L 502.293074 165.475862 
L 502.293074 142.475661 
L 496.934564 142.475661 
z
" clip-path="url(#p6340c2a1d5)" style="fill: #3775ba"/>
   </g>
   <g id="patch_79">
    <path d="M 502.888465 165.475862 
L 508.246975 165.475862 
L 508.246975 146.000604 
L 502.888465 146.000604 
z
" clip-path="url(#p6340c2a1d5)" style="fill: #3775ba"/>
   </g>
   <g id="patch_80">
    <path d="M 508.842366 165.475862 
L 514.200876 165.475862 
L 514.200876 145.58537 
L 508.842366 145.58537 
z
" clip-path="url(#p6340c2a1d5)" style="fill: #3775ba"/>
   </g>
   <g id="patch_81">
    <path d="M 514.796267 165.475862 
L 520.154777 165.475862 
L 520.154777 148.409037 
L 514.796267 148.409037 
z
" clip-path="url(#p6340c2a1d5)" style="fill: #3775ba"/>
   </g>
   <g id="patch_82">
    <path d="M 520.750168 165.475862 
L 526.108678 165.475862 
L 526.108678 157.944115 
L 520.750168 157.944115 
z
" clip-path="url(#p6340c2a1d5)" style="fill: #3775ba"/>
   </g>
   <g id="patch_83">
    <path d="M 526.704069 165.475862 
L 532.062579 165.475862 
L 532.062579 149.93792 
L 526.704069 149.93792 
z
" clip-path="url(#p6340c2a1d5)" style="fill: #3775ba"/>
   </g>
   <g id="patch_84">
    <path d="M 532.657969 165.475862 
L 538.01648 165.475862 
L 538.01648 148.102895 
L 532.657969 148.102895 
z
" clip-path="url(#p6340c2a1d5)" style="fill: #3775ba"/>
   </g>
   <g id="patch_85">
    <path d="M 538.61187 165.475862 
L 543.970381 165.475862 
L 543.970381 149.228044 
L 538.61187 149.228044 
z
" clip-path="url(#p6340c2a1d5)" style="fill: #3775ba"/>
   </g>
   <g id="patch_86">
    <path d="M 544.565771 165.475862 
L 549.924282 165.475862 
L 549.924282 152.998424 
L 544.565771 152.998424 
z
" clip-path="url(#p6340c2a1d5)" style="fill: #3775ba"/>
   </g>
   <g id="patch_87">
    <path d="M 550.519672 165.475862 
L 555.878183 165.475862 
L 555.878183 156.293273 
L 550.519672 156.293273 
z
" clip-path="url(#p6340c2a1d5)" style="fill: #3775ba"/>
   </g>
   <g id="patch_88">
    <path d="M 556.473573 165.475862 
L 561.832084 165.475862 
L 561.832084 155.694093 
L 556.473573 155.694093 
z
" clip-path="url(#p6340c2a1d5)" style="fill: #3775ba"/>
   </g>
   <g id="patch_89">
    <path d="M 562.427474 165.475862 
L 567.785985 165.475862 
L 567.785985 156.976024 
L 562.427474 156.976024 
z
" clip-path="url(#p6340c2a1d5)" style="fill: #3775ba"/>
   </g>
   <g id="patch_90">
    <path d="M 568.381375 165.475862 
L 573.739886 165.475862 
L 573.739886 165.475862 
L 568.381375 165.475862 
z
" clip-path="url(#p6340c2a1d5)" style="fill: #3775ba"/>
   </g>
   <g id="patch_91">
    <path d="M 574.335276 165.475862 
L 579.693787 165.475862 
L 579.693787 165.475862 
L 574.335276 165.475862 
z
" clip-path="url(#p6340c2a1d5)" style="fill: #3775ba"/>
   </g>
   <g id="patch_92">
    <path d="M 580.289177 165.475862 
L 585.647688 165.475862 
L 585.647688 165.475862 
L 580.289177 165.475862 
z
" clip-path="url(#p6340c2a1d5)" style="fill: #3775ba"/>
   </g>
   <g id="patch_93">
    <path d="M 586.243078 165.475862 
L 591.601589 165.475862 
L 591.601589 165.475862 
L 586.243078 165.475862 
z
" clip-path="url(#p6340c2a1d5)" style="fill: #3775ba"/>
   </g>
   <g id="patch_94">
    <path d="M 592.196979 165.475862 
L 597.55549 165.475862 
L 597.55549 165.475862 
L 592.196979 165.475862 
z
" clip-path="url(#p6340c2a1d5)" style="fill: #3775ba"/>
   </g>
   <g id="patch_95">
    <path d="M 598.15088 165.475862 
L 603.509391 165.475862 
L 603.509391 165.475862 
L 598.15088 165.475862 
z
" clip-path="url(#p6340c2a1d5)" style="fill: #3775ba"/>
   </g>
   <g id="patch_96">
    <path d="M 604.104781 165.475862 
L 609.463292 165.475862 
L 609.463292 165.475862 
L 604.104781 165.475862 
z
" clip-path="url(#p6340c2a1d5)" style="fill: #3775ba"/>
   </g>
   <g id="patch_97">
    <path d="M 610.058682 165.475862 
L 615.417193 165.475862 
L 615.417193 165.475862 
L 610.058682 165.475862 
z
" clip-path="url(#p6340c2a1d5)" style="fill: #3775ba"/>
   </g>
   <g id="patch_98">
    <path d="M 616.012583 165.475862 
L 621.371094 165.475862 
L 621.371094 165.475862 
L 616.012583 165.475862 
z
" clip-path="url(#p6340c2a1d5)" style="fill: #3775ba"/>
   </g>
   <g id="patch_99">
    <path d="M 621.966484 165.475862 
L 627.324995 165.475862 
L 627.324995 165.475862 
L 621.966484 165.475862 
z
" clip-path="url(#p6340c2a1d5)" style="fill: #3775ba"/>
   </g>
   <g id="patch_100">
    <path d="M 627.920385 165.475862 
L 633.278896 165.475862 
L 633.278896 165.475862 
L 627.920385 165.475862 
z
" clip-path="url(#p6340c2a1d5)" style="fill: #3775ba"/>
   </g>
   <g id="patch_101">
    <path d="M 633.874286 165.475862 
L 639.232797 165.475862 
L 639.232797 165.475862 
L 633.874286 165.475862 
z
" clip-path="url(#p6340c2a1d5)" style="fill: #3775ba"/>
   </g>
   <g id="patch_102">
    <path d="M 639.828187 165.475862 
L 645.186698 165.475862 
L 645.186698 165.475862 
L 639.828187 165.475862 
z
" clip-path="url(#p6340c2a1d5)" style="fill: #3775ba"/>
   </g>
   <g id="patch_103">
    <path d="M 50.391989 32.277365 
L 55.7505 32.277365 
L 55.7505 26.637387 
L 50.391989 26.637387 
z
" clip-path="url(#p6340c2a1d5)" style="fill: #e1a33c"/>
   </g>
   <g id="patch_104">
    <path d="M 56.34589 51.601643 
L 61.704401 51.601643 
L 61.704401 47.631016 
L 56.34589 47.631016 
z
" clip-path="url(#p6340c2a1d5)" style="fill: #e1a33c"/>
   </g>
   <g id="patch_105">
    <path d="M 62.299791 66.377559 
L 67.658302 66.377559 
L 67.658302 52.061992 
L 62.299791 52.061992 
z
" clip-path="url(#p6340c2a1d5)" style="fill: #e1a33c"/>
   </g>
   <g id="patch_106">
    <path d="M 68.253692 71.071343 
L 73.612203 71.071343 
L 73.612203 60.738001 
L 68.253692 60.738001 
z
" clip-path="url(#p6340c2a1d5)" style="fill: #e1a33c"/>
   </g>
   <g id="patch_107">
    <path d="M 74.207593 72.579515 
L 79.566104 72.579515 
L 79.566104 66.48782 
L 74.207593 66.48782 
z
" clip-path="url(#p6340c2a1d5)" style="fill: #e1a33c"/>
   </g>
   <g id="patch_108">
    <path d="M 80.161494 91.386931 
L 85.520005 91.386931 
L 85.520005 71.047467 
L 80.161494 71.047467 
z
" clip-path="url(#p6340c2a1d5)" style="fill: #e1a33c"/>
   </g>
   <g id="patch_109">
    <path d="M 86.115395 85.224891 
L 91.473906 85.224891 
L 91.473906 74.357216 
L 86.115395 74.357216 
z
" clip-path="url(#p6340c2a1d5)" style="fill: #e1a33c"/>
   </g>
   <g id="patch_110">
    <path d="M 92.069296 83.705709 
L 97.427807 83.705709 
L 97.427807 74.996664 
L 92.069296 74.996664 
z
" clip-path="url(#p6340c2a1d5)" style="fill: #e1a33c"/>
   </g>
   <g id="patch_111">
    <path d="M 98.023197 96.620177 
L 103.381708 96.620177 
L 103.381708 77.097763 
L 98.023197 77.097763 
z
" clip-path="url(#p6340c2a1d5)" style="fill: #e1a33c"/>
   </g>
   <g id="patch_112">
    <path d="M 103.977098 100.488938 
L 109.335609 100.488938 
L 109.335609 77.171899 
L 103.977098 77.171899 
z
" clip-path="url(#p6340c2a1d5)" style="fill: #e1a33c"/>
   </g>
   <g id="patch_113">
    <path d="M 109.930999 101.759119 
L 115.28951 101.759119 
L 115.28951 78.154554 
L 109.930999 78.154554 
z
" clip-path="url(#p6340c2a1d5)" style="fill: #e1a33c"/>
   </g>
   <g id="patch_114">
    <path d="M 115.8849 87.744823 
L 121.243411 87.744823 
L 121.243411 80.361946 
L 115.8849 80.361946 
z
" clip-path="url(#p6340c2a1d5)" style="fill: #e1a33c"/>
   </g>
   <g id="patch_115">
    <path d="M 121.838801 94.278671 
L 127.197312 94.278671 
L 127.197312 83.772353 
L 121.838801 83.772353 
z
" clip-path="url(#p6340c2a1d5)" style="fill: #e1a33c"/>
   </g>
   <g id="patch_116">
    <path d="M 127.792702 90.592504 
L 133.151213 90.592504 
L 133.151213 86.381431 
L 127.792702 86.381431 
z
" clip-path="url(#p6340c2a1d5)" style="fill: #e1a33c"/>
   </g>
   <g id="patch_117">
    <path d="M 133.746603 117.26232 
L 139.105114 117.26232 
L 139.105114 87.567765 
L 133.746603 87.567765 
z
" clip-path="url(#p6340c2a1d5)" style="fill: #e1a33c"/>
   </g>
   <g id="patch_118">
    <path d="M 139.700504 106.692508 
L 145.059015 106.692508 
L 145.059015 88.281801 
L 139.700504 88.281801 
z
" clip-path="url(#p6340c2a1d5)" style="fill: #e1a33c"/>
   </g>
   <g id="patch_119">
    <path d="M 145.654405 88.505733 
L 151.012916 88.505733 
L 151.012916 88.505733 
L 145.654405 88.505733 
z
" clip-path="url(#p6340c2a1d5)" style="fill: #e1a33c"/>
   </g>
   <g id="patch_120">
    <path d="M 151.608306 105.757109 
L 156.966817 105.757109 
L 156.966817 89.878223 
L 151.608306 89.878223 
z
" clip-path="url(#p6340c2a1d5)" style="fill: #e1a33c"/>
   </g>
   <g id="patch_121">
    <path d="M 157.562207 97.934058 
L 162.920718 97.934058 
L 162.920718 91.669793 
L 157.562207 91.669793 
z
" clip-path="url(#p6340c2a1d5)" style="fill: #e1a33c"/>
   </g>
   <g id="patch_122">
    <path d="M 163.516108 100.362224 
L 168.874619 100.362224 
L 168.874619 92.45032 
L 163.516108 92.45032 
z
" clip-path="url(#p6340c2a1d5)" style="fill: #e1a33c"/>
   </g>
   <g id="patch_123">
    <path d="M 169.470009 105.560486 
L 174.82852 105.560486 
L 174.82852 94.920161 
L 169.470009 94.920161 
z
" clip-path="url(#p6340c2a1d5)" style="fill: #e1a33c"/>
   </g>
   <g id="patch_124">
    <path d="M 175.42391 100.079806 
L 180.782421 100.079806 
L 180.782421 95.051699 
L 175.42391 95.051699 
z
" clip-path="url(#p6340c2a1d5)" style="fill: #e1a33c"/>
   </g>
   <g id="patch_125">
    <path d="M 181.377811 102.885475 
L 186.736322 102.885475 
L 186.736322 96.013168 
L 181.377811 96.013168 
z
" clip-path="url(#p6340c2a1d5)" style="fill: #e1a33c"/>
   </g>
   <g id="patch_126">
    <path d="M 187.331712 104.722626 
L 192.690223 104.722626 
L 192.690223 96.484236 
L 187.331712 96.484236 
z
" clip-path="url(#p6340c2a1d5)" style="fill: #e1a33c"/>
   </g>
   <g id="patch_127">
    <path d="M 193.285613 124.199818 
L 198.644124 124.199818 
L 198.644124 101.932629 
L 193.285613 101.932629 
z
" clip-path="url(#p6340c2a1d5)" style="fill: #e1a33c"/>
   </g>
   <g id="patch_128">
    <path d="M 199.239514 109.501854 
L 204.598025 109.501854 
L 204.598025 103.133146 
L 199.239514 103.133146 
z
" clip-path="url(#p6340c2a1d5)" style="fill: #e1a33c"/>
   </g>
   <g id="patch_129">
    <path d="M 205.193415 114.945332 
L 210.551926 114.945332 
L 210.551926 104.55163 
L 205.193415 104.55163 
z
" clip-path="url(#p6340c2a1d5)" style="fill: #e1a33c"/>
   </g>
   <g id="patch_130">
    <path d="M 211.147316 107.489572 
L 216.505827 107.489572 
L 216.505827 105.082094 
L 211.147316 105.082094 
z
" clip-path="url(#p6340c2a1d5)" style="fill: #e1a33c"/>
   </g>
   <g id="patch_131">
    <path d="M 217.101217 110.534877 
L 222.459728 110.534877 
L 222.459728 106.243528 
L 217.101217 106.243528 
z
" clip-path="url(#p6340c2a1d5)" style="fill: #e1a33c"/>
   </g>
   <g id="patch_132">
    <path d="M 223.055118 112.501004 
L 228.413629 112.501004 
L 228.413629 107.18687 
L 223.055118 107.18687 
z
" clip-path="url(#p6340c2a1d5)" style="fill: #e1a33c"/>
   </g>
   <g id="patch_133">
    <path d="M 229.009019 118.465023 
L 234.36753 118.465023 
L 234.36753 108.644109 
L 229.009019 108.644109 
z
" clip-path="url(#p6340c2a1d5)" style="fill: #e1a33c"/>
   </g>
   <g id="patch_134">
    <path d="M 234.96292 111.549267 
L 240.321431 111.549267 
L 240.321431 109.021299 
L 234.96292 109.021299 
z
" clip-path="url(#p6340c2a1d5)" style="fill: #e1a33c"/>
   </g>
   <g id="patch_135">
    <path d="M 240.916821 112.988601 
L 246.275332 112.988601 
L 246.275332 110.095446 
L 240.916821 110.095446 
z
" clip-path="url(#p6340c2a1d5)" style="fill: #e1a33c"/>
   </g>
   <g id="patch_136">
    <path d="M 246.870722 113.395593 
L 252.229233 113.395593 
L 252.229233 110.111486 
L 246.870722 110.111486 
z
" clip-path="url(#p6340c2a1d5)" style="fill: #e1a33c"/>
   </g>
   <g id="patch_137">
    <path d="M 252.824623 116.155994 
L 258.183134 116.155994 
L 258.183134 110.844291 
L 252.824623 110.844291 
z
" clip-path="url(#p6340c2a1d5)" style="fill: #e1a33c"/>
   </g>
   <g id="patch_138">
    <path d="M 258.778524 131.22205 
L 264.137035 131.22205 
L 264.137035 111.367087 
L 258.778524 111.367087 
z
" clip-path="url(#p6340c2a1d5)" style="fill: #e1a33c"/>
   </g>
   <g id="patch_139">
    <path d="M 264.732425 127.117263 
L 270.090936 127.117263 
L 270.090936 111.453639 
L 264.732425 111.453639 
z
" clip-path="url(#p6340c2a1d5)" style="fill: #e1a33c"/>
   </g>
   <g id="patch_140">
    <path d="M 270.686326 116.850336 
L 276.044837 116.850336 
L 276.044837 112.16685 
L 270.686326 112.16685 
z
" clip-path="url(#p6340c2a1d5)" style="fill: #e1a33c"/>
   </g>
   <g id="patch_141">
    <path d="M 276.640227 116.03152 
L 281.998738 116.03152 
L 281.998738 113.009389 
L 276.640227 113.009389 
z
" clip-path="url(#p6340c2a1d5)" style="fill: #e1a33c"/>
   </g>
   <g id="patch_142">
    <path d="M 282.594128 118.376841 
L 287.952639 118.376841 
L 287.952639 113.488216 
L 282.594128 113.488216 
z
" clip-path="url(#p6340c2a1d5)" style="fill: #e1a33c"/>
   </g>
   <g id="patch_143">
    <path d="M 288.548029 116.418428 
L 293.90654 116.418428 
L 293.90654 113.881278 
L 288.548029 113.881278 
z
" clip-path="url(#p6340c2a1d5)" style="fill: #e1a33c"/>
   </g>
   <g id="patch_144">
    <path d="M 294.50193 130.283165 
L 299.860441 130.283165 
L 299.860441 114.307039 
L 294.50193 114.307039 
z
" clip-path="url(#p6340c2a1d5)" style="fill: #e1a33c"/>
   </g>
   <g id="patch_145">
    <path d="M 300.455831 125.356611 
L 305.814342 125.356611 
L 305.814342 114.395495 
L 300.455831 114.395495 
z
" clip-path="url(#p6340c2a1d5)" style="fill: #e1a33c"/>
   </g>
   <g id="patch_146">
    <path d="M 306.409732 139.389102 
L 311.768243 139.389102 
L 311.768243 114.63471 
L 306.409732 114.63471 
z
" clip-path="url(#p6340c2a1d5)" style="fill: #e1a33c"/>
   </g>
   <g id="patch_147">
    <path d="M 312.363633 132.927036 
L 317.722144 132.927036 
L 317.722144 115.858552 
L 312.363633 115.858552 
z
" clip-path="url(#p6340c2a1d5)" style="fill: #e1a33c"/>
   </g>
   <g id="patch_148">
    <path d="M 318.317534 134.142767 
L 323.676045 134.142767 
L 323.676045 116.441486 
L 318.317534 116.441486 
z
" clip-path="url(#p6340c2a1d5)" style="fill: #e1a33c"/>
   </g>
   <g id="patch_149">
    <path d="M 324.271435 123.001695 
L 329.629946 123.001695 
L 329.629946 118.49698 
L 324.271435 118.49698 
z
" clip-path="url(#p6340c2a1d5)" style="fill: #e1a33c"/>
   </g>
   <g id="patch_150">
    <path d="M 330.225336 138.907546 
L 335.583847 138.907546 
L 335.583847 118.500772 
L 330.225336 118.500772 
z
" clip-path="url(#p6340c2a1d5)" style="fill: #e1a33c"/>
   </g>
   <g id="patch_151">
    <path d="M 336.179237 124.506129 
L 341.537748 124.506129 
L 341.537748 120.375263 
L 336.179237 120.375263 
z
" clip-path="url(#p6340c2a1d5)" style="fill: #e1a33c"/>
   </g>
   <g id="patch_152">
    <path d="M 342.133138 128.90017 
L 347.491649 128.90017 
L 347.491649 120.80318 
L 342.133138 120.80318 
z
" clip-path="url(#p6340c2a1d5)" style="fill: #e1a33c"/>
   </g>
   <g id="patch_153">
    <path d="M 348.087039 124.750099 
L 353.44555 124.750099 
L 353.44555 121.304056 
L 348.087039 121.304056 
z
" clip-path="url(#p6340c2a1d5)" style="fill: #e1a33c"/>
   </g>
   <g id="patch_154">
    <path d="M 354.04094 124.648171 
L 359.399451 124.648171 
L 359.399451 121.365808 
L 354.04094 121.365808 
z
" clip-path="url(#p6340c2a1d5)" style="fill: #e1a33c"/>
   </g>
   <g id="patch_155">
    <path d="M 359.994841 127.24705 
L 365.353352 127.24705 
L 365.353352 121.58847 
L 359.994841 121.58847 
z
" clip-path="url(#p6340c2a1d5)" style="fill: #e1a33c"/>
   </g>
   <g id="patch_156">
    <path d="M 365.948742 129.710828 
L 371.307253 129.710828 
L 371.307253 122.398807 
L 365.948742 122.398807 
z
" clip-path="url(#p6340c2a1d5)" style="fill: #e1a33c"/>
   </g>
   <g id="patch_157">
    <path d="M 371.902643 143.130943 
L 377.261154 143.130943 
L 377.261154 123.423909 
L 371.902643 123.423909 
z
" clip-path="url(#p6340c2a1d5)" style="fill: #e1a33c"/>
   </g>
   <g id="patch_158">
    <path d="M 377.856544 128.014657 
L 383.215055 128.014657 
L 383.215055 124.726666 
L 377.856544 124.726666 
z
" clip-path="url(#p6340c2a1d5)" style="fill: #e1a33c"/>
   </g>
   <g id="patch_159">
    <path d="M 383.810445 129.705346 
L 389.168956 129.705346 
L 389.168956 125.24307 
L 383.810445 125.24307 
z
" clip-path="url(#p6340c2a1d5)" style="fill: #e1a33c"/>
   </g>
   <g id="patch_160">
    <path d="M 389.764346 131.880184 
L 395.122857 131.880184 
L 395.122857 126.267384 
L 389.764346 126.267384 
z
" clip-path="url(#p6340c2a1d5)" style="fill: #e1a33c"/>
   </g>
   <g id="patch_161">
    <path d="M 395.718247 130.146566 
L 401.076758 130.146566 
L 401.076758 126.470192 
L 395.718247 126.470192 
z
" clip-path="url(#p6340c2a1d5)" style="fill: #e1a33c"/>
   </g>
   <g id="patch_162">
    <path d="M 401.672148 138.408672 
L 407.030659 138.408672 
L 407.030659 128.669136 
L 401.672148 128.669136 
z
" clip-path="url(#p6340c2a1d5)" style="fill: #e1a33c"/>
   </g>
   <g id="patch_163">
    <path d="M 407.626049 136.66419 
L 412.98456 136.66419 
L 412.98456 128.79864 
L 407.626049 128.79864 
z
" clip-path="url(#p6340c2a1d5)" style="fill: #e1a33c"/>
   </g>
   <g id="patch_164">
    <path d="M 413.57995 141.354748 
L 418.938461 141.354748 
L 418.938461 128.904887 
L 413.57995 128.904887 
z
" clip-path="url(#p6340c2a1d5)" style="fill: #e1a33c"/>
   </g>
   <g id="patch_165">
    <path d="M 419.533851 138.311424 
L 424.892362 138.311424 
L 424.892362 130.242905 
L 419.533851 130.242905 
z
" clip-path="url(#p6340c2a1d5)" style="fill: #e1a33c"/>
   </g>
   <g id="patch_166">
    <path d="M 425.487752 138.458145 
L 430.846263 138.458145 
L 430.846263 130.32036 
L 425.487752 130.32036 
z
" clip-path="url(#p6340c2a1d5)" style="fill: #e1a33c"/>
   </g>
   <g id="patch_167">
    <path d="M 431.441653 135.429431 
L 436.800164 135.429431 
L 436.800164 133.178285 
L 431.441653 133.178285 
z
" clip-path="url(#p6340c2a1d5)" style="fill: #e1a33c"/>
   </g>
   <g id="patch_168">
    <path d="M 437.395554 133.873093 
L 442.754065 133.873093 
L 442.754065 133.873093 
L 437.395554 133.873093 
z
" clip-path="url(#p6340c2a1d5)" style="fill: #e1a33c"/>
   </g>
   <g id="patch_169">
    <path d="M 443.349455 133.990609 
L 448.707966 133.990609 
L 448.707966 133.990609 
L 443.349455 133.990609 
z
" clip-path="url(#p6340c2a1d5)" style="fill: #e1a33c"/>
   </g>
   <g id="patch_170">
    <path d="M 449.303356 136.360938 
L 454.661867 136.360938 
L 454.661867 134.272478 
L 449.303356 134.272478 
z
" clip-path="url(#p6340c2a1d5)" style="fill: #e1a33c"/>
   </g>
   <g id="patch_171">
    <path d="M 455.257257 138.971109 
L 460.615768 138.971109 
L 460.615768 134.572404 
L 455.257257 134.572404 
z
" clip-path="url(#p6340c2a1d5)" style="fill: #e1a33c"/>
   </g>
   <g id="patch_172">
    <path d="M 461.211158 138.8424 
L 466.569669 138.8424 
L 466.569669 135.037852 
L 461.211158 135.037852 
z
" clip-path="url(#p6340c2a1d5)" style="fill: #e1a33c"/>
   </g>
   <g id="patch_173">
    <path d="M 467.165059 138.757231 
L 472.523569 138.757231 
L 472.523569 135.249016 
L 467.165059 135.249016 
z
" clip-path="url(#p6340c2a1d5)" style="fill: #e1a33c"/>
   </g>
   <g id="patch_174">
    <path d="M 473.11896 142.310216 
L 478.47747 142.310216 
L 478.47747 136.117121 
L 473.11896 136.117121 
z
" clip-path="url(#p6340c2a1d5)" style="fill: #e1a33c"/>
   </g>
   <g id="patch_175">
    <path d="M 479.072861 138.429376 
L 484.431371 138.429376 
L 484.431371 136.279355 
L 479.072861 136.279355 
z
" clip-path="url(#p6340c2a1d5)" style="fill: #e1a33c"/>
   </g>
   <g id="patch_176">
    <path d="M 485.026762 143.639579 
L 490.385272 143.639579 
L 490.385272 137.357057 
L 485.026762 137.357057 
z
" clip-path="url(#p6340c2a1d5)" style="fill: #e1a33c"/>
   </g>
   <g id="patch_177">
    <path d="M 490.980663 140.80865 
L 496.339173 140.80865 
L 496.339173 138.410408 
L 490.980663 138.410408 
z
" clip-path="url(#p6340c2a1d5)" style="fill: #e1a33c"/>
   </g>
   <g id="patch_178">
    <path d="M 496.934564 142.475661 
L 502.293074 142.475661 
L 502.293074 138.445767 
L 496.934564 138.445767 
z
" clip-path="url(#p6340c2a1d5)" style="fill: #e1a33c"/>
   </g>
   <g id="patch_179">
    <path d="M 502.888465 146.000604 
L 508.246975 146.000604 
L 508.246975 140.809613 
L 502.888465 140.809613 
z
" clip-path="url(#p6340c2a1d5)" style="fill: #e1a33c"/>
   </g>
   <g id="patch_180">
    <path d="M 508.842366 145.58537 
L 514.200876 145.58537 
L 514.200876 142.064878 
L 508.842366 142.064878 
z
" clip-path="url(#p6340c2a1d5)" style="fill: #e1a33c"/>
   </g>
   <g id="patch_181">
    <path d="M 514.796267 148.409037 
L 520.154777 148.409037 
L 520.154777 145.077208 
L 514.796267 145.077208 
z
" clip-path="url(#p6340c2a1d5)" style="fill: #e1a33c"/>
   </g>
   <g id="patch_182">
    <path d="M 520.750168 157.944115 
L 526.108678 157.944115 
L 526.108678 145.227584 
L 520.750168 145.227584 
z
" clip-path="url(#p6340c2a1d5)" style="fill: #e1a33c"/>
   </g>
   <g id="patch_183">
    <path d="M 526.704069 149.93792 
L 532.062579 149.93792 
L 532.062579 145.383587 
L 526.704069 145.383587 
z
" clip-path="url(#p6340c2a1d5)" style="fill: #e1a33c"/>
   </g>
   <g id="patch_184">
    <path d="M 532.657969 148.102895 
L 538.01648 148.102895 
L 538.01648 146.168274 
L 532.657969 146.168274 
z
" clip-path="url(#p6340c2a1d5)" style="fill: #e1a33c"/>
   </g>
   <g id="patch_185">
    <path d="M 538.61187 149.228044 
L 543.970381 149.228044 
L 543.970381 146.484011 
L 538.61187 146.484011 
z
" clip-path="url(#p6340c2a1d5)" style="fill: #e1a33c"/>
   </g>
   <g id="patch_186">
    <path d="M 544.565771 152.998424 
L 549.924282 152.998424 
L 549.924282 148.217132 
L 544.565771 148.217132 
z
" clip-path="url(#p6340c2a1d5)" style="fill: #e1a33c"/>
   </g>
   <g id="patch_187">
    <path d="M 550.519672 156.293273 
L 555.878183 156.293273 
L 555.878183 152.351063 
L 550.519672 152.351063 
z
" clip-path="url(#p6340c2a1d5)" style="fill: #e1a33c"/>
   </g>
   <g id="patch_188">
    <path d="M 556.473573 155.694093 
L 561.832084 155.694093 
L 561.832084 153.07779 
L 556.473573 153.07779 
z
" clip-path="url(#p6340c2a1d5)" style="fill: #e1a33c"/>
   </g>
   <g id="patch_189">
    <path d="M 562.427474 156.976024 
L 567.785985 156.976024 
L 567.785985 153.877072 
L 562.427474 153.877072 
z
" clip-path="url(#p6340c2a1d5)" style="fill: #e1a33c"/>
   </g>
   <g id="patch_190">
    <path d="M 568.381375 165.475862 
L 573.739886 165.475862 
L 573.739886 165.475862 
L 568.381375 165.475862 
z
" clip-path="url(#p6340c2a1d5)" style="fill: #e1a33c"/>
   </g>
   <g id="patch_191">
    <path d="M 574.335276 165.475862 
L 579.693787 165.475862 
L 579.693787 165.475862 
L 574.335276 165.475862 
z
" clip-path="url(#p6340c2a1d5)" style="fill: #e1a33c"/>
   </g>
   <g id="patch_192">
    <path d="M 580.289177 165.475862 
L 585.647688 165.475862 
L 585.647688 165.475862 
L 580.289177 165.475862 
z
" clip-path="url(#p6340c2a1d5)" style="fill: #e1a33c"/>
   </g>
   <g id="patch_193">
    <path d="M 586.243078 165.475862 
L 591.601589 165.475862 
L 591.601589 165.475862 
L 586.243078 165.475862 
z
" clip-path="url(#p6340c2a1d5)" style="fill: #e1a33c"/>
   </g>
   <g id="patch_194">
    <path d="M 592.196979 165.475862 
L 597.55549 165.475862 
L 597.55549 165.475862 
L 592.196979 165.475862 
z
" clip-path="url(#p6340c2a1d5)" style="fill: #e1a33c"/>
   </g>
   <g id="patch_195">
    <path d="M 598.15088 165.475862 
L 603.509391 165.475862 
L 603.509391 165.475862 
L 598.15088 165.475862 
z
" clip-path="url(#p6340c2a1d5)" style="fill: #e1a33c"/>
   </g>
   <g id="patch_196">
    <path d="M 604.104781 165.475862 
L 609.463292 165.475862 
L 609.463292 165.475862 
L 604.104781 165.475862 
z
" clip-path="url(#p6340c2a1d5)" style="fill: #e1a33c"/>
   </g>
   <g id="patch_197">
    <path d="M 610.058682 165.475862 
L 615.417193 165.475862 
L 615.417193 165.475862 
L 610.058682 165.475862 
z
" clip-path="url(#p6340c2a1d5)" style="fill: #e1a33c"/>
   </g>
   <g id="patch_198">
    <path d="M 616.012583 165.475862 
L 621.371094 165.475862 
L 621.371094 165.475862 
L 616.012583 165.475862 
z
" clip-path="url(#p6340c2a1d5)" style="fill: #e1a33c"/>
   </g>
   <g id="patch_199">
    <path d="M 621.966484 165.475862 
L 627.324995 165.475862 
L 627.324995 165.475862 
L 621.966484 165.475862 
z
" clip-path="url(#p6340c2a1d5)" style="fill: #e1a33c"/>
   </g>
   <g id="patch_200">
    <path d="M 627.920385 165.475862 
L 633.278896 165.475862 
L 633.278896 165.475862 
L 627.920385 165.475862 
z
" clip-path="url(#p6340c2a1d5)" style="fill: #e1a33c"/>
   </g>
   <g id="patch_201">
    <path d="M 633.874286 165.475862 
L 639.232797 165.475862 
L 639.232797 165.475862 
L 633.874286 165.475862 
z
" clip-path="url(#p6340c2a1d5)" style="fill: #e1a33c"/>
   </g>
   <g id="patch_202">
    <path d="M 639.828187 165.475862 
L 645.186698 165.475862 
L 645.186698 165.475862 
L 639.828187 165.475862 
z
" clip-path="url(#p6340c2a1d5)" style="fill: #e1a33c"/>
   </g>
   <g id="matplotlib.axis_1"/>
   <g id="matplotlib.axis_2">
    <g id="ytick_1">
     <g id="line2d_2">
      <defs>
       <path id="m5d3b2b78f1" d="M 0 0 
L -3.5 0 
" style="stroke: #333333; stroke-width: 0.8"/>
      </defs>
      <g>
       <use xlink:href="#m5d3b2b78f1" x="47.117344" y="165.475862" style="fill: #333333; stroke: #333333; stroke-width: 0.8"/>
      </g>
     </g>
     <g id="text_1">
      <text style="fill: #333333; font: 12.5px 'Arial', 'DejaVu Sans', sans-serif; text-anchor: end" x="40.117344" y="169.949495" transform="rotate(-0 40.117344 169.949495)">0</text>
     </g>
    </g>
    <g id="ytick_2">
     <g id="line2d_3">
      <g>
       <use xlink:href="#m5d3b2b78f1" x="47.117344" y="127.249191" style="fill: #333333; stroke: #333333; stroke-width: 0.8"/>
      </g>
     </g>
     <g id="text_2">
      <text style="fill: #333333; font: 12.5px 'Arial', 'DejaVu Sans', sans-serif; text-anchor: end" x="40.117344" y="131.722823" transform="rotate(-0 40.117344 131.722823)">5</text>
     </g>
    </g>
    <g id="ytick_3">
     <g id="line2d_4">
      <g>
       <use xlink:href="#m5d3b2b78f1" x="47.117344" y="89.022519" style="fill: #333333; stroke: #333333; stroke-width: 0.8"/>
      </g>
     </g>
     <g id="text_3">
      <text style="fill: #333333; font: 12.5px 'Arial', 'DejaVu Sans', sans-serif; text-anchor: end" x="40.117344" y="93.496152" transform="rotate(-0 40.117344 93.496152)">10</text>
     </g>
    </g>
    <g id="ytick_4">
     <g id="line2d_5">
      <g>
       <use xlink:href="#m5d3b2b78f1" x="47.117344" y="50.795848" style="fill: #333333; stroke: #333333; stroke-width: 0.8"/>
      </g>
     </g>
     <g id="text_4">
      <text style="fill: #333333; font: 12.5px 'Arial', 'DejaVu Sans', sans-serif; text-anchor: end" x="40.117344" y="55.269481" transform="rotate(-0 40.117344 55.269481)">15</text>
     </g>
    </g>
    <g id="ytick_5">
     <g id="line2d_6">
      <g>
       <use xlink:href="#m5d3b2b78f1" x="47.117344" y="12.569176" style="fill: #333333; stroke: #333333; stroke-width: 0.8"/>
      </g>
     </g>
     <g id="text_5">
      <text style="fill: #333333; font: 12.5px 'Arial', 'DejaVu Sans', sans-serif; text-anchor: end" x="40.117344" y="17.042809" transform="rotate(-0 40.117344 17.042809)">20</text>
     </g>
    </g>
    <g id="text_6">
     <text style="fill: #333333; font: 16px 'Arial', 'DejaVu Sans', sans-serif; text-anchor: middle" x="18.8475" y="86.337931" transform="rotate(-90 18.8475 86.337931)">Tokens (M)</text>
    </g>
   </g>
   <g id="patch_203">
    <path d="M 47.117344 165.475862 
L 47.117344 7.2 
" style="fill: none; stroke: #4d4d4d; stroke-linejoin: miter; stroke-linecap: square"/>
   </g>
   <g id="patch_204">
    <path d="M 47.117344 165.475862 
L 648.461344 165.475862 
" style="fill: none; stroke: #4d4d4d; stroke-linejoin: miter; stroke-linecap: square"/>
   </g>
   <g id="text_7">
    <text style="fill: #767676; font: 14px 'Arial', 'DejaVu Sans', sans-serif; text-anchor: end" x="642.507443" y="109.734659" transform="rotate(-0 642.507443 109.734659)">mean 6.9M </text>
   </g>
   <g id="text_8">
    <text style="fill: #767676; font: 14px 'Arial', 'DejaVu Sans', sans-serif; text-anchor: middle" x="606.784037" y="190.533006" transform="rotate(-0 606.784037 190.533006)">13 no code</text>
   </g>
   <g id="line2d_7">
    <path d="M 568.08368 167.85 
L 568.08368 175.763793 
L 645.484393 175.763793 
L 645.484393 167.85 
" style="fill: none; stroke: #767676; stroke-linecap: square"/>
   </g>
   <g id="legend_1">
    <g id="patch_205">
     <path d="M 462.670406 29.820938 
L 478.070406 29.820938 
L 478.070406 20.020938 
L 462.670406 20.020938 
z
" style="fill: #3775ba"/>
    </g>
    <g id="text_9">
     <text style="fill: #333333; font: 14px 'Arial', 'DejaVu Sans', sans-serif; text-anchor: start" x="489.270406" y="29.820938" transform="rotate(-0 489.270406 29.820938)">Audit</text>
    </g>
    <g id="patch_206">
     <path d="M 540.779469 29.820938 
L 556.179469 29.820938 
L 556.179469 20.020938 
L 540.779469 20.020938 
z
" style="fill: #e1a33c"/>
    </g>
    <g id="text_10">
     <text style="fill: #333333; font: 14px 'Arial', 'DejaVu Sans', sans-serif; text-anchor: start" x="567.379469" y="29.820938" transform="rotate(-0 567.379469 29.820938)">Verification</text>
    </g>
   </g>
  </g>
  <g id="axes_2">
   <g id="patch_207">
    <path d="M 47.117344 374.4 
L 648.461344 374.4 
L 648.461344 216.124138 
L 47.117344 216.124138 
z
" style="fill: #ffffff"/>
   </g>
   <g id="line2d_8">
    <path d="M 47.117344 316.25184 
L 648.461344 316.25184 
" clip-path="url(#pc93f587c76)" style="fill: none; stroke-dasharray: 3.7,1.6; stroke-dashoffset: 0; stroke: #767676"/>
   </g>
   <g id="patch_208">
    <path d="M 50.391989 374.4 
L 55.7505 374.4 
L 55.7505 287.25544 
L 50.391989 287.25544 
z
" clip-path="url(#pc93f587c76)" style="fill: #3775ba"/>
   </g>
   <g id="patch_209">
    <path d="M 56.34589 374.4 
L 61.704401 374.4 
L 61.704401 296.621998 
L 56.34589 296.621998 
z
" clip-path="url(#pc93f587c76)" style="fill: #3775ba"/>
   </g>
   <g id="patch_210">
    <path d="M 62.299791 374.4 
L 67.658302 374.4 
L 67.658302 298.044767 
L 62.299791 298.044767 
z
" clip-path="url(#pc93f587c76)" style="fill: #3775ba"/>
   </g>
   <g id="patch_211">
    <path d="M 68.253692 374.4 
L 73.612203 374.4 
L 73.612203 323.417468 
L 68.253692 323.417468 
z
" clip-path="url(#pc93f587c76)" style="fill: #3775ba"/>
   </g>
   <g id="patch_212">
    <path d="M 74.207593 374.4 
L 79.566104 374.4 
L 79.566104 299.763945 
L 74.207593 299.763945 
z
" clip-path="url(#pc93f587c76)" style="fill: #3775ba"/>
   </g>
   <g id="patch_213">
    <path d="M 80.161494 374.4 
L 85.520005 374.4 
L 85.520005 336.99305 
L 80.161494 336.99305 
z
" clip-path="url(#pc93f587c76)" style="fill: #3775ba"/>
   </g>
   <g id="patch_214">
    <path d="M 86.115395 374.4 
L 91.473906 374.4 
L 91.473906 333.317565 
L 86.115395 333.317565 
z
" clip-path="url(#pc93f587c76)" style="fill: #3775ba"/>
   </g>
   <g id="patch_215">
    <path d="M 92.069296 374.4 
L 97.427807 374.4 
L 97.427807 324.128853 
L 92.069296 324.128853 
z
" clip-path="url(#pc93f587c76)" style="fill: #3775ba"/>
   </g>
   <g id="patch_216">
    <path d="M 98.023197 374.4 
L 103.381708 374.4 
L 103.381708 339.95715 
L 98.023197 339.95715 
z
" clip-path="url(#pc93f587c76)" style="fill: #3775ba"/>
   </g>
   <g id="patch_217">
    <path d="M 103.977098 374.4 
L 109.335609 374.4 
L 109.335609 284.58775 
L 103.977098 284.58775 
z
" clip-path="url(#pc93f587c76)" style="fill: #3775ba"/>
   </g>
   <g id="patch_218">
    <path d="M 109.930999 374.4 
L 115.28951 374.4 
L 115.28951 334.621769 
L 109.930999 334.621769 
z
" clip-path="url(#pc93f587c76)" style="fill: #3775ba"/>
   </g>
   <g id="patch_219">
    <path d="M 115.8849 374.4 
L 121.243411 374.4 
L 121.243411 295.79205 
L 115.8849 295.79205 
z
" clip-path="url(#pc93f587c76)" style="fill: #3775ba"/>
   </g>
   <g id="patch_220">
    <path d="M 121.838801 374.4 
L 127.197312 374.4 
L 127.197312 328.871414 
L 121.838801 328.871414 
z
" clip-path="url(#pc93f587c76)" style="fill: #3775ba"/>
   </g>
   <g id="patch_221">
    <path d="M 127.792702 374.4 
L 133.151213 374.4 
L 133.151213 318.319215 
L 127.792702 318.319215 
z
" clip-path="url(#pc93f587c76)" style="fill: #3775ba"/>
   </g>
   <g id="patch_222">
    <path d="M 133.746603 374.4 
L 139.105114 374.4 
L 139.105114 345.351813 
L 133.746603 345.351813 
z
" clip-path="url(#pc93f587c76)" style="fill: #3775ba"/>
   </g>
   <g id="patch_223">
    <path d="M 139.700504 374.4 
L 145.059015 374.4 
L 145.059015 335.451717 
L 139.700504 335.451717 
z
" clip-path="url(#pc93f587c76)" style="fill: #3775ba"/>
   </g>
   <g id="patch_224">
    <path d="M 145.654405 374.4 
L 151.012916 374.4 
L 151.012916 331.71695 
L 145.654405 331.71695 
z
" clip-path="url(#pc93f587c76)" style="fill: #3775ba"/>
   </g>
   <g id="patch_225">
    <path d="M 151.608306 374.4 
L 156.966817 374.4 
L 156.966817 342.506277 
L 151.608306 342.506277 
z
" clip-path="url(#pc93f587c76)" style="fill: #3775ba"/>
   </g>
   <g id="patch_226">
    <path d="M 157.562207 374.4 
L 162.920718 374.4 
L 162.920718 312.628142 
L 157.562207 312.628142 
z
" clip-path="url(#pc93f587c76)" style="fill: #3775ba"/>
   </g>
   <g id="patch_227">
    <path d="M 163.516108 374.4 
L 168.874619 374.4 
L 168.874619 297.807639 
L 163.516108 297.807639 
z
" clip-path="url(#pc93f587c76)" style="fill: #3775ba"/>
   </g>
   <g id="patch_228">
    <path d="M 169.470009 374.4 
L 174.82852 374.4 
L 174.82852 340.84638 
L 169.470009 340.84638 
z
" clip-path="url(#pc93f587c76)" style="fill: #3775ba"/>
   </g>
   <g id="patch_229">
    <path d="M 175.42391 374.4 
L 180.782421 374.4 
L 180.782421 332.30977 
L 175.42391 332.30977 
z
" clip-path="url(#pc93f587c76)" style="fill: #3775ba"/>
   </g>
   <g id="patch_230">
    <path d="M 181.377811 374.4 
L 186.736322 374.4 
L 186.736322 311.738912 
L 181.377811 311.738912 
z
" clip-path="url(#pc93f587c76)" style="fill: #3775ba"/>
   </g>
   <g id="patch_231">
    <path d="M 187.331712 374.4 
L 192.690223 374.4 
L 192.690223 314.64373 
L 187.331712 314.64373 
z
" clip-path="url(#pc93f587c76)" style="fill: #3775ba"/>
   </g>
   <g id="patch_232">
    <path d="M 193.285613 374.4 
L 198.644124 374.4 
L 198.644124 346.656018 
L 193.285613 346.656018 
z
" clip-path="url(#pc93f587c76)" style="fill: #3775ba"/>
   </g>
   <g id="patch_233">
    <path d="M 199.239514 374.4 
L 204.598025 374.4 
L 204.598025 286.721902 
L 199.239514 286.721902 
z
" clip-path="url(#pc93f587c76)" style="fill: #3775ba"/>
   </g>
   <g id="patch_234">
    <path d="M 205.193415 374.4 
L 210.551926 374.4 
L 210.551926 335.570281 
L 205.193415 335.570281 
z
" clip-path="url(#pc93f587c76)" style="fill: #3775ba"/>
   </g>
   <g id="patch_235">
    <path d="M 211.147316 374.4 
L 216.505827 374.4 
L 216.505827 320.038394 
L 211.147316 320.038394 
z
" clip-path="url(#pc93f587c76)" style="fill: #3775ba"/>
   </g>
   <g id="patch_236">
    <path d="M 217.101217 374.4 
L 222.459728 374.4 
L 222.459728 334.384641 
L 217.101217 334.384641 
z
" clip-path="url(#pc93f587c76)" style="fill: #3775ba"/>
   </g>
   <g id="patch_237">
    <path d="M 223.055118 374.4 
L 228.413629 374.4 
L 228.413629 333.851103 
L 223.055118 333.851103 
z
" clip-path="url(#pc93f587c76)" style="fill: #3775ba"/>
   </g>
   <g id="patch_238">
    <path d="M 229.009019 374.4 
L 234.36753 374.4 
L 234.36753 339.06792 
L 229.009019 339.06792 
z
" clip-path="url(#pc93f587c76)" style="fill: #3775ba"/>
   </g>
   <g id="patch_239">
    <path d="M 234.96292 374.4 
L 240.321431 374.4 
L 240.321431 338.000844 
L 234.96292 338.000844 
z
" clip-path="url(#pc93f587c76)" style="fill: #3775ba"/>
   </g>
   <g id="patch_240">
    <path d="M 240.916821 374.4 
L 246.275332 374.4 
L 246.275332 343.099097 
L 240.916821 343.099097 
z
" clip-path="url(#pc93f587c76)" style="fill: #3775ba"/>
   </g>
   <g id="patch_241">
    <path d="M 246.870722 374.4 
L 252.229233 374.4 
L 252.229233 343.691917 
L 246.870722 343.691917 
z
" clip-path="url(#pc93f587c76)" style="fill: #3775ba"/>
   </g>
   <g id="patch_242">
    <path d="M 252.824623 374.4 
L 258.183134 374.4 
L 258.183134 341.379919 
L 252.824623 341.379919 
z
" clip-path="url(#pc93f587c76)" style="fill: #3775ba"/>
   </g>
   <g id="patch_243">
    <path d="M 258.778524 374.4 
L 264.137035 374.4 
L 264.137035 345.707505 
L 258.778524 345.707505 
z
" clip-path="url(#pc93f587c76)" style="fill: #3775ba"/>
   </g>
   <g id="patch_244">
    <path d="M 264.732425 374.4 
L 270.090936 374.4 
L 270.090936 340.312842 
L 264.732425 340.312842 
z
" clip-path="url(#pc93f587c76)" style="fill: #3775ba"/>
   </g>
   <g id="patch_245">
    <path d="M 270.686326 374.4 
L 276.044837 374.4 
L 276.044837 336.222383 
L 270.686326 336.222383 
z
" clip-path="url(#pc93f587c76)" style="fill: #3775ba"/>
   </g>
   <g id="patch_246">
    <path d="M 276.640227 374.4 
L 281.998738 374.4 
L 281.998738 341.379919 
L 276.640227 341.379919 
z
" clip-path="url(#pc93f587c76)" style="fill: #3775ba"/>
   </g>
   <g id="patch_247">
    <path d="M 282.594128 374.4 
L 287.952639 374.4 
L 287.952639 339.482894 
L 282.594128 339.482894 
z
" clip-path="url(#pc93f587c76)" style="fill: #3775ba"/>
   </g>
   <g id="patch_248">
    <path d="M 288.548029 374.4 
L 293.90654 374.4 
L 293.90654 335.451717 
L 288.548029 335.451717 
z
" clip-path="url(#pc93f587c76)" style="fill: #3775ba"/>
   </g>
   <g id="patch_249">
    <path d="M 294.50193 374.4 
L 299.860441 374.4 
L 299.860441 352.050681 
L 294.50193 352.050681 
z
" clip-path="url(#pc93f587c76)" style="fill: #3775ba"/>
   </g>
   <g id="patch_250">
    <path d="M 300.455831 374.4 
L 305.814342 374.4 
L 305.814342 336.578075 
L 300.455831 336.578075 
z
" clip-path="url(#pc93f587c76)" style="fill: #3775ba"/>
   </g>
   <g id="patch_251">
    <path d="M 306.409732 374.4 
L 311.768243 374.4 
L 311.768243 349.442272 
L 306.409732 349.442272 
z
" clip-path="url(#pc93f587c76)" style="fill: #3775ba"/>
   </g>
   <g id="patch_252">
    <path d="M 312.363633 374.4 
L 317.722144 374.4 
L 317.722144 347.189556 
L 312.363633 347.189556 
z
" clip-path="url(#pc93f587c76)" style="fill: #3775ba"/>
   </g>
   <g id="patch_253">
    <path d="M 318.317534 374.4 
L 323.676045 374.4 
L 323.676045 346.181762 
L 318.317534 346.181762 
z
" clip-path="url(#pc93f587c76)" style="fill: #3775ba"/>
   </g>
   <g id="patch_254">
    <path d="M 324.271435 374.4 
L 329.629946 374.4 
L 329.629946 346.063198 
L 324.271435 346.063198 
z
" clip-path="url(#pc93f587c76)" style="fill: #3775ba"/>
   </g>
   <g id="patch_255">
    <path d="M 330.225336 374.4 
L 335.583847 374.4 
L 335.583847 348.671606 
L 330.225336 348.671606 
z
" clip-path="url(#pc93f587c76)" style="fill: #3775ba"/>
   </g>
   <g id="patch_256">
    <path d="M 336.179237 374.4 
L 341.537748 374.4 
L 341.537748 344.166173 
L 336.179237 344.166173 
z
" clip-path="url(#pc93f587c76)" style="fill: #3775ba"/>
   </g>
   <g id="patch_257">
    <path d="M 342.133138 374.4 
L 347.491649 374.4 
L 347.491649 341.854175 
L 342.133138 341.854175 
z
" clip-path="url(#pc93f587c76)" style="fill: #3775ba"/>
   </g>
   <g id="patch_258">
    <path d="M 348.087039 374.4 
L 353.44555 374.4 
L 353.44555 348.019504 
L 348.087039 348.019504 
z
" clip-path="url(#pc93f587c76)" style="fill: #3775ba"/>
   </g>
   <g id="patch_259">
    <path d="M 354.04094 374.4 
L 359.399451 374.4 
L 359.399451 348.138068 
L 354.04094 348.138068 
z
" clip-path="url(#pc93f587c76)" style="fill: #3775ba"/>
   </g>
   <g id="patch_260">
    <path d="M 359.994841 374.4 
L 365.353352 374.4 
L 365.353352 339.779304 
L 359.994841 339.779304 
z
" clip-path="url(#pc93f587c76)" style="fill: #3775ba"/>
   </g>
   <g id="patch_261">
    <path d="M 365.948742 374.4 
L 371.307253 374.4 
L 371.307253 343.632635 
L 365.948742 343.632635 
z
" clip-path="url(#pc93f587c76)" style="fill: #3775ba"/>
   </g>
   <g id="patch_262">
    <path d="M 371.902643 374.4 
L 377.261154 374.4 
L 377.261154 348.256632 
L 371.902643 348.256632 
z
" clip-path="url(#pc93f587c76)" style="fill: #3775ba"/>
   </g>
   <g id="patch_263">
    <path d="M 377.856544 374.4 
L 383.215055 374.4 
L 383.215055 348.671606 
L 377.856544 348.671606 
z
" clip-path="url(#pc93f587c76)" style="fill: #3775ba"/>
   </g>
   <g id="patch_264">
    <path d="M 383.810445 374.4 
L 389.168956 374.4 
L 389.168956 342.743405 
L 383.810445 342.743405 
z
" clip-path="url(#pc93f587c76)" style="fill: #3775ba"/>
   </g>
   <g id="patch_265">
    <path d="M 389.764346 374.4 
L 395.122857 374.4 
L 395.122857 344.106891 
L 389.764346 344.106891 
z
" clip-path="url(#pc93f587c76)" style="fill: #3775ba"/>
   </g>
   <g id="patch_266">
    <path d="M 395.718247 374.4 
L 401.076758 374.4 
L 401.076758 344.403301 
L 395.718247 344.403301 
z
" clip-path="url(#pc93f587c76)" style="fill: #3775ba"/>
   </g>
   <g id="patch_267">
    <path d="M 401.672148 374.4 
L 407.030659 374.4 
L 407.030659 343.988327 
L 401.672148 343.988327 
z
" clip-path="url(#pc93f587c76)" style="fill: #3775ba"/>
   </g>
   <g id="patch_268">
    <path d="M 407.626049 374.4 
L 412.98456 374.4 
L 412.98456 350.450067 
L 407.626049 350.450067 
z
" clip-path="url(#pc93f587c76)" style="fill: #3775ba"/>
   </g>
   <g id="patch_269">
    <path d="M 413.57995 374.4 
L 418.938461 374.4 
L 418.938461 345.529659 
L 413.57995 345.529659 
z
" clip-path="url(#pc93f587c76)" style="fill: #3775ba"/>
   </g>
   <g id="patch_270">
    <path d="M 419.533851 374.4 
L 424.892362 374.4 
L 424.892362 350.094374 
L 419.533851 350.094374 
z
" clip-path="url(#pc93f587c76)" style="fill: #3775ba"/>
   </g>
   <g id="patch_271">
    <path d="M 425.487752 374.4 
L 430.846263 374.4 
L 430.846263 345.470377 
L 425.487752 345.470377 
z
" clip-path="url(#pc93f587c76)" style="fill: #3775ba"/>
   </g>
   <g id="patch_272">
    <path d="M 431.441653 374.4 
L 436.800164 374.4 
L 436.800164 351.280015 
L 431.441653 351.280015 
z
" clip-path="url(#pc93f587c76)" style="fill: #3775ba"/>
   </g>
   <g id="patch_273">
    <path d="M 437.395554 374.4 
L 442.754065 374.4 
L 442.754065 342.802687 
L 437.395554 342.802687 
z
" clip-path="url(#pc93f587c76)" style="fill: #3775ba"/>
   </g>
   <g id="patch_274">
    <path d="M 443.349455 374.4 
L 448.707966 374.4 
L 448.707966 344.581147 
L 443.349455 344.581147 
z
" clip-path="url(#pc93f587c76)" style="fill: #3775ba"/>
   </g>
   <g id="patch_275">
    <path d="M 449.303356 374.4 
L 454.661867 374.4 
L 454.661867 351.991399 
L 449.303356 351.991399 
z
" clip-path="url(#pc93f587c76)" style="fill: #3775ba"/>
   </g>
   <g id="patch_276">
    <path d="M 455.257257 374.4 
L 460.615768 374.4 
L 460.615768 348.375196 
L 455.257257 348.375196 
z
" clip-path="url(#pc93f587c76)" style="fill: #3775ba"/>
   </g>
   <g id="patch_277">
    <path d="M 461.211158 374.4 
L 466.569669 374.4 
L 466.569669 347.01171 
L 461.211158 347.01171 
z
" clip-path="url(#pc93f587c76)" style="fill: #3775ba"/>
   </g>
   <g id="patch_278">
    <path d="M 467.165059 374.4 
L 472.523569 374.4 
L 472.523569 352.287809 
L 467.165059 352.287809 
z
" clip-path="url(#pc93f587c76)" style="fill: #3775ba"/>
   </g>
   <g id="patch_279">
    <path d="M 473.11896 374.4 
L 478.47747 374.4 
L 478.47747 349.6794 
L 473.11896 349.6794 
z
" clip-path="url(#pc93f587c76)" style="fill: #3775ba"/>
   </g>
   <g id="patch_280">
    <path d="M 479.072861 374.4 
L 484.431371 374.4 
L 484.431371 349.205144 
L 479.072861 349.205144 
z
" clip-path="url(#pc93f587c76)" style="fill: #3775ba"/>
   </g>
   <g id="patch_281">
    <path d="M 485.026762 374.4 
L 490.385272 374.4 
L 490.385272 352.169245 
L 485.026762 352.169245 
z
" clip-path="url(#pc93f587c76)" style="fill: #3775ba"/>
   </g>
   <g id="patch_282">
    <path d="M 490.980663 374.4 
L 496.339173 374.4 
L 496.339173 351.991399 
L 490.980663 351.991399 
z
" clip-path="url(#pc93f587c76)" style="fill: #3775ba"/>
   </g>
   <g id="patch_283">
    <path d="M 496.934564 374.4 
L 502.293074 374.4 
L 502.293074 345.588941 
L 496.934564 345.588941 
z
" clip-path="url(#pc93f587c76)" style="fill: #3775ba"/>
   </g>
   <g id="patch_284">
    <path d="M 502.888465 374.4 
L 508.246975 374.4 
L 508.246975 352.406373 
L 502.888465 352.406373 
z
" clip-path="url(#pc93f587c76)" style="fill: #3775ba"/>
   </g>
   <g id="patch_285">
    <path d="M 508.842366 374.4 
L 514.200876 374.4 
L 514.200876 349.38299 
L 508.842366 349.38299 
z
" clip-path="url(#pc93f587c76)" style="fill: #3775ba"/>
   </g>
   <g id="patch_286">
    <path d="M 514.796267 374.4 
L 520.154777 374.4 
L 520.154777 353.532731 
L 514.796267 353.532731 
z
" clip-path="url(#pc93f587c76)" style="fill: #3775ba"/>
   </g>
   <g id="patch_287">
    <path d="M 520.750168 374.4 
L 526.108678 374.4 
L 526.108678 361.654367 
L 520.750168 361.654367 
z
" clip-path="url(#pc93f587c76)" style="fill: #3775ba"/>
   </g>
   <g id="patch_288">
    <path d="M 526.704069 374.4 
L 532.062579 374.4 
L 532.062579 352.524937 
L 526.704069 352.524937 
z
" clip-path="url(#pc93f587c76)" style="fill: #3775ba"/>
   </g>
   <g id="patch_289">
    <path d="M 532.657969 374.4 
L 538.01648 374.4 
L 538.01648 351.932117 
L 532.657969 351.932117 
z
" clip-path="url(#pc93f587c76)" style="fill: #3775ba"/>
   </g>
   <g id="patch_290">
    <path d="M 538.61187 374.4 
L 543.970381 374.4 
L 543.970381 351.457861 
L 538.61187 351.457861 
z
" clip-path="url(#pc93f587c76)" style="fill: #3775ba"/>
   </g>
   <g id="patch_291">
    <path d="M 544.565771 374.4 
L 549.924282 374.4 
L 549.924282 355.429756 
L 544.565771 355.429756 
z
" clip-path="url(#pc93f587c76)" style="fill: #3775ba"/>
   </g>
   <g id="patch_292">
    <path d="M 550.519672 374.4 
L 555.878183 374.4 
L 555.878183 359.816625 
L 550.519672 359.816625 
z
" clip-path="url(#pc93f587c76)" style="fill: #3775ba"/>
   </g>
   <g id="patch_293">
    <path d="M 556.473573 374.4 
L 561.832084 374.4 
L 561.832084 358.334574 
L 556.473573 358.334574 
z
" clip-path="url(#pc93f587c76)" style="fill: #3775ba"/>
   </g>
   <g id="patch_294">
    <path d="M 562.427474 374.4 
L 567.785985 374.4 
L 567.785985 359.757343 
L 562.427474 359.757343 
z
" clip-path="url(#pc93f587c76)" style="fill: #3775ba"/>
   </g>
   <g id="patch_295">
    <path d="M 568.381375 374.4 
L 573.739886 374.4 
L 573.739886 374.4 
L 568.381375 374.4 
z
" clip-path="url(#pc93f587c76)" style="fill: #3775ba"/>
   </g>
   <g id="patch_296">
    <path d="M 574.335276 374.4 
L 579.693787 374.4 
L 579.693787 374.4 
L 574.335276 374.4 
z
" clip-path="url(#pc93f587c76)" style="fill: #3775ba"/>
   </g>
   <g id="patch_297">
    <path d="M 580.289177 374.4 
L 585.647688 374.4 
L 585.647688 374.4 
L 580.289177 374.4 
z
" clip-path="url(#pc93f587c76)" style="fill: #3775ba"/>
   </g>
   <g id="patch_298">
    <path d="M 586.243078 374.4 
L 591.601589 374.4 
L 591.601589 374.4 
L 586.243078 374.4 
z
" clip-path="url(#pc93f587c76)" style="fill: #3775ba"/>
   </g>
   <g id="patch_299">
    <path d="M 592.196979 374.4 
L 597.55549 374.4 
L 597.55549 374.4 
L 592.196979 374.4 
z
" clip-path="url(#pc93f587c76)" style="fill: #3775ba"/>
   </g>
   <g id="patch_300">
    <path d="M 598.15088 374.4 
L 603.509391 374.4 
L 603.509391 374.4 
L 598.15088 374.4 
z
" clip-path="url(#pc93f587c76)" style="fill: #3775ba"/>
   </g>
   <g id="patch_301">
    <path d="M 604.104781 374.4 
L 609.463292 374.4 
L 609.463292 374.4 
L 604.104781 374.4 
z
" clip-path="url(#pc93f587c76)" style="fill: #3775ba"/>
   </g>
   <g id="patch_302">
    <path d="M 610.058682 374.4 
L 615.417193 374.4 
L 615.417193 374.4 
L 610.058682 374.4 
z
" clip-path="url(#pc93f587c76)" style="fill: #3775ba"/>
   </g>
   <g id="patch_303">
    <path d="M 616.012583 374.4 
L 621.371094 374.4 
L 621.371094 374.4 
L 616.012583 374.4 
z
" clip-path="url(#pc93f587c76)" style="fill: #3775ba"/>
   </g>
   <g id="patch_304">
    <path d="M 621.966484 374.4 
L 627.324995 374.4 
L 627.324995 374.4 
L 621.966484 374.4 
z
" clip-path="url(#pc93f587c76)" style="fill: #3775ba"/>
   </g>
   <g id="patch_305">
    <path d="M 627.920385 374.4 
L 633.278896 374.4 
L 633.278896 374.4 
L 627.920385 374.4 
z
" clip-path="url(#pc93f587c76)" style="fill: #3775ba"/>
   </g>
   <g id="patch_306">
    <path d="M 633.874286 374.4 
L 639.232797 374.4 
L 639.232797 374.4 
L 633.874286 374.4 
z
" clip-path="url(#pc93f587c76)" style="fill: #3775ba"/>
   </g>
   <g id="patch_307">
    <path d="M 639.828187 374.4 
L 645.186698 374.4 
L 645.186698 374.4 
L 639.828187 374.4 
z
" clip-path="url(#pc93f587c76)" style="fill: #3775ba"/>
   </g>
   <g id="patch_308">
    <path d="M 50.391989 287.25544 
L 55.7505 287.25544 
L 55.7505 274.154115 
L 50.391989 274.154115 
z
" clip-path="url(#pc93f587c76)" style="fill: #e1a33c"/>
   </g>
   <g id="patch_309">
    <path d="M 56.34589 296.621998 
L 61.704401 296.621998 
L 61.704401 280.793701 
L 56.34589 280.793701 
z
" clip-path="url(#pc93f587c76)" style="fill: #e1a33c"/>
   </g>
   <g id="patch_310">
    <path d="M 62.299791 298.044767 
L 67.658302 298.044767 
L 67.658302 245.876595 
L 62.299791 245.876595 
z
" clip-path="url(#pc93f587c76)" style="fill: #e1a33c"/>
   </g>
   <g id="patch_311">
    <path d="M 68.253692 323.417468 
L 73.612203 323.417468 
L 73.612203 267.81094 
L 68.253692 267.81094 
z
" clip-path="url(#pc93f587c76)" style="fill: #e1a33c"/>
   </g>
   <g id="patch_312">
    <path d="M 74.207593 299.763945 
L 79.566104 299.763945 
L 79.566104 284.232058 
L 74.207593 284.232058 
z
" clip-path="url(#pc93f587c76)" style="fill: #e1a33c"/>
   </g>
   <g id="patch_313">
    <path d="M 80.161494 336.99305 
L 85.520005 336.99305 
L 85.520005 286.603338 
L 80.161494 286.603338 
z
" clip-path="url(#pc93f587c76)" style="fill: #e1a33c"/>
   </g>
   <g id="patch_314">
    <path d="M 86.115395 333.317565 
L 91.473906 333.317565 
L 91.473906 294.724974 
L 86.115395 294.724974 
z
" clip-path="url(#pc93f587c76)" style="fill: #e1a33c"/>
   </g>
   <g id="patch_315">
    <path d="M 92.069296 324.128853 
L 97.427807 324.128853 
L 97.427807 303.380148 
L 92.069296 303.380148 
z
" clip-path="url(#pc93f587c76)" style="fill: #e1a33c"/>
   </g>
   <g id="patch_316">
    <path d="M 98.023197 339.95715 
L 103.381708 339.95715 
L 103.381708 298.519023 
L 98.023197 298.519023 
z
" clip-path="url(#pc93f587c76)" style="fill: #e1a33c"/>
   </g>
   <g id="patch_317">
    <path d="M 103.977098 284.58775 
L 109.335609 284.58775 
L 109.335609 235.561525 
L 103.977098 235.561525 
z
" clip-path="url(#pc93f587c76)" style="fill: #e1a33c"/>
   </g>
   <g id="patch_318">
    <path d="M 109.930999 334.621769 
L 115.28951 334.621769 
L 115.28951 262.060585 
L 109.930999 262.060585 
z
" clip-path="url(#pc93f587c76)" style="fill: #e1a33c"/>
   </g>
   <g id="patch_319">
    <path d="M 115.8849 295.79205 
L 121.243411 295.79205 
L 121.243411 265.439659 
L 115.8849 265.439659 
z
" clip-path="url(#pc93f587c76)" style="fill: #e1a33c"/>
   </g>
   <g id="patch_320">
    <path d="M 121.838801 328.871414 
L 127.197312 328.871414 
L 127.197312 309.189785 
L 121.838801 309.189785 
z
" clip-path="url(#pc93f587c76)" style="fill: #e1a33c"/>
   </g>
   <g id="patch_321">
    <path d="M 127.792702 318.319215 
L 133.151213 318.319215 
L 133.151213 298.637587 
L 127.792702 298.637587 
z
" clip-path="url(#pc93f587c76)" style="fill: #e1a33c"/>
   </g>
   <g id="patch_322">
    <path d="M 133.746603 345.351813 
L 139.105114 345.351813 
L 139.105114 302.609482 
L 133.746603 302.609482 
z
" clip-path="url(#pc93f587c76)" style="fill: #e1a33c"/>
   </g>
   <g id="patch_323">
    <path d="M 139.700504 335.451717 
L 145.059015 335.451717 
L 145.059015 300.178919 
L 139.700504 300.178919 
z
" clip-path="url(#pc93f587c76)" style="fill: #e1a33c"/>
   </g>
   <g id="patch_324">
    <path d="M 145.654405 331.71695 
L 151.012916 331.71695 
L 151.012916 331.71695 
L 145.654405 331.71695 
z
" clip-path="url(#pc93f587c76)" style="fill: #e1a33c"/>
   </g>
   <g id="patch_325">
    <path d="M 151.608306 342.506277 
L 156.966817 342.506277 
L 156.966817 309.308349 
L 151.608306 309.308349 
z
" clip-path="url(#pc93f587c76)" style="fill: #e1a33c"/>
   </g>
   <g id="patch_326">
    <path d="M 157.562207 312.628142 
L 162.920718 312.628142 
L 162.920718 279.845189 
L 157.562207 279.845189 
z
" clip-path="url(#pc93f587c76)" style="fill: #e1a33c"/>
   </g>
   <g id="patch_327">
    <path d="M 163.516108 297.807639 
L 168.874619 297.807639 
L 168.874619 276.169704 
L 163.516108 276.169704 
z
" clip-path="url(#pc93f587c76)" style="fill: #e1a33c"/>
   </g>
   <g id="patch_328">
    <path d="M 169.470009 340.84638 
L 174.82852 340.84638 
L 174.82852 321.046188 
L 169.470009 321.046188 
z
" clip-path="url(#pc93f587c76)" style="fill: #e1a33c"/>
   </g>
   <g id="patch_329">
    <path d="M 175.42391 332.30977 
L 180.782421 332.30977 
L 180.782421 312.27245 
L 175.42391 312.27245 
z
" clip-path="url(#pc93f587c76)" style="fill: #e1a33c"/>
   </g>
   <g id="patch_330">
    <path d="M 181.377811 311.738912 
L 186.736322 311.738912 
L 186.736322 292.472257 
L 181.377811 292.472257 
z
" clip-path="url(#pc93f587c76)" style="fill: #e1a33c"/>
   </g>
   <g id="patch_331">
    <path d="M 187.331712 314.64373 
L 192.690223 314.64373 
L 192.690223 299.408253 
L 187.331712 299.408253 
z
" clip-path="url(#pc93f587c76)" style="fill: #e1a33c"/>
   </g>
   <g id="patch_332">
    <path d="M 193.285613 346.656018 
L 198.644124 346.656018 
L 198.644124 302.5502 
L 193.285613 302.5502 
z
" clip-path="url(#pc93f587c76)" style="fill: #e1a33c"/>
   </g>
   <g id="patch_333">
    <path d="M 199.239514 286.721902 
L 204.598025 286.721902 
L 204.598025 263.779763 
L 199.239514 263.779763 
z
" clip-path="url(#pc93f587c76)" style="fill: #e1a33c"/>
   </g>
   <g id="patch_334">
    <path d="M 205.193415 335.570281 
L 210.551926 335.570281 
L 210.551926 310.197579 
L 205.193415 310.197579 
z
" clip-path="url(#pc93f587c76)" style="fill: #e1a33c"/>
   </g>
   <g id="patch_335">
    <path d="M 211.147316 320.038394 
L 216.505827 320.038394 
L 216.505827 310.316143 
L 211.147316 310.316143 
z
" clip-path="url(#pc93f587c76)" style="fill: #e1a33c"/>
   </g>
   <g id="patch_336">
    <path d="M 217.101217 334.384641 
L 222.459728 334.384641 
L 222.459728 320.631214 
L 217.101217 320.631214 
z
" clip-path="url(#pc93f587c76)" style="fill: #e1a33c"/>
   </g>
   <g id="patch_337">
    <path d="M 223.055118 333.851103 
L 228.413629 333.851103 
L 228.413629 320.51265 
L 223.055118 320.51265 
z
" clip-path="url(#pc93f587c76)" style="fill: #e1a33c"/>
   </g>
   <g id="patch_338">
    <path d="M 229.009019 339.06792 
L 234.36753 339.06792 
L 234.36753 296.325588 
L 229.009019 296.325588 
z
" clip-path="url(#pc93f587c76)" style="fill: #e1a33c"/>
   </g>
   <g id="patch_339">
    <path d="M 234.96292 338.000844 
L 240.321431 338.000844 
L 240.321431 327.567209 
L 234.96292 327.567209 
z
" clip-path="url(#pc93f587c76)" style="fill: #e1a33c"/>
   </g>
   <g id="patch_340">
    <path d="M 240.916821 343.099097 
L 246.275332 343.099097 
L 246.275332 329.760644 
L 240.916821 329.760644 
z
" clip-path="url(#pc93f587c76)" style="fill: #e1a33c"/>
   </g>
   <g id="patch_341">
    <path d="M 246.870722 343.691917 
L 252.229233 343.691917 
L 252.229233 329.286388 
L 246.870722 329.286388 
z
" clip-path="url(#pc93f587c76)" style="fill: #e1a33c"/>
   </g>
   <g id="patch_342">
    <path d="M 252.824623 341.379919 
L 258.183134 341.379919 
L 258.183134 326.381569 
L 252.824623 326.381569 
z
" clip-path="url(#pc93f587c76)" style="fill: #e1a33c"/>
   </g>
   <g id="patch_343">
    <path d="M 258.778524 345.707505 
L 264.137035 345.707505 
L 264.137035 308.063427 
L 258.778524 308.063427 
z
" clip-path="url(#pc93f587c76)" style="fill: #e1a33c"/>
   </g>
   <g id="patch_344">
    <path d="M 264.732425 340.312842 
L 270.090936 340.312842 
L 270.090936 307.589171 
L 264.732425 307.589171 
z
" clip-path="url(#pc93f587c76)" style="fill: #e1a33c"/>
   </g>
   <g id="patch_345">
    <path d="M 270.686326 336.222383 
L 276.044837 336.222383 
L 276.044837 319.682702 
L 270.686326 319.682702 
z
" clip-path="url(#pc93f587c76)" style="fill: #e1a33c"/>
   </g>
   <g id="patch_346">
    <path d="M 276.640227 341.379919 
L 281.998738 341.379919 
L 281.998738 330.472028 
L 276.640227 330.472028 
z
" clip-path="url(#pc93f587c76)" style="fill: #e1a33c"/>
   </g>
   <g id="patch_347">
    <path d="M 282.594128 339.482894 
L 287.952639 339.482894 
L 287.952639 319.149163 
L 282.594128 319.149163 
z
" clip-path="url(#pc93f587c76)" style="fill: #e1a33c"/>
   </g>
   <g id="patch_348">
    <path d="M 288.548029 335.451717 
L 293.90654 335.451717 
L 293.90654 322.29111 
L 288.548029 322.29111 
z
" clip-path="url(#pc93f587c76)" style="fill: #e1a33c"/>
   </g>
   <g id="patch_349">
    <path d="M 294.50193 352.050681 
L 299.860441 352.050681 
L 299.860441 319.564138 
L 294.50193 319.564138 
z
" clip-path="url(#pc93f587c76)" style="fill: #e1a33c"/>
   </g>
   <g id="patch_350">
    <path d="M 300.455831 336.578075 
L 305.814342 336.578075 
L 305.814342 309.545477 
L 300.455831 309.545477 
z
" clip-path="url(#pc93f587c76)" style="fill: #e1a33c"/>
   </g>
   <g id="patch_351">
    <path d="M 306.409732 349.442272 
L 311.768243 349.442272 
L 311.768243 306.522095 
L 306.409732 306.522095 
z
" clip-path="url(#pc93f587c76)" style="fill: #e1a33c"/>
   </g>
   <g id="patch_352">
    <path d="M 312.363633 347.189556 
L 317.722144 347.189556 
L 317.722144 311.97604 
L 312.363633 311.97604 
z
" clip-path="url(#pc93f587c76)" style="fill: #e1a33c"/>
   </g>
   <g id="patch_353">
    <path d="M 318.317534 346.181762 
L 323.676045 346.181762 
L 323.676045 314.288038 
L 318.317534 314.288038 
z
" clip-path="url(#pc93f587c76)" style="fill: #e1a33c"/>
   </g>
   <g id="patch_354">
    <path d="M 324.271435 346.063198 
L 329.629946 346.063198 
L 329.629946 329.760644 
L 324.271435 329.760644 
z
" clip-path="url(#pc93f587c76)" style="fill: #e1a33c"/>
   </g>
   <g id="patch_355">
    <path d="M 330.225336 348.671606 
L 335.583847 348.671606 
L 335.583847 312.035322 
L 330.225336 312.035322 
z
" clip-path="url(#pc93f587c76)" style="fill: #e1a33c"/>
   </g>
   <g id="patch_356">
    <path d="M 336.179237 344.166173 
L 341.537748 344.166173 
L 341.537748 332.369052 
L 336.179237 332.369052 
z
" clip-path="url(#pc93f587c76)" style="fill: #e1a33c"/>
   </g>
   <g id="patch_357">
    <path d="M 342.133138 341.854175 
L 347.491649 341.854175 
L 347.491649 324.603109 
L 342.133138 324.603109 
z
" clip-path="url(#pc93f587c76)" style="fill: #e1a33c"/>
   </g>
   <g id="patch_358">
    <path d="M 348.087039 348.019504 
L 353.44555 348.019504 
L 353.44555 337.763716 
L 348.087039 337.763716 
z
" clip-path="url(#pc93f587c76)" style="fill: #e1a33c"/>
   </g>
   <g id="patch_359">
    <path d="M 354.04094 348.138068 
L 359.399451 348.138068 
L 359.399451 334.562487 
L 354.04094 334.562487 
z
" clip-path="url(#pc93f587c76)" style="fill: #e1a33c"/>
   </g>
   <g id="patch_360">
    <path d="M 359.994841 339.779304 
L 365.353352 339.779304 
L 365.353352 304.565788 
L 359.994841 304.565788 
z
" clip-path="url(#pc93f587c76)" style="fill: #e1a33c"/>
   </g>
   <g id="patch_361">
    <path d="M 365.948742 343.632635 
L 371.307253 343.632635 
L 371.307253 326.203723 
L 365.948742 326.203723 
z
" clip-path="url(#pc93f587c76)" style="fill: #e1a33c"/>
   </g>
   <g id="patch_362">
    <path d="M 371.902643 348.256632 
L 377.261154 348.256632 
L 377.261154 304.862198 
L 371.902643 304.862198 
z
" clip-path="url(#pc93f587c76)" style="fill: #e1a33c"/>
   </g>
   <g id="patch_363">
    <path d="M 377.856544 348.671606 
L 383.215055 348.671606 
L 383.215055 333.317565 
L 377.856544 333.317565 
z
" clip-path="url(#pc93f587c76)" style="fill: #e1a33c"/>
   </g>
   <g id="patch_364">
    <path d="M 383.810445 342.743405 
L 389.168956 342.743405 
L 389.168956 324.247417 
L 383.810445 324.247417 
z
" clip-path="url(#pc93f587c76)" style="fill: #e1a33c"/>
   </g>
   <g id="patch_365">
    <path d="M 389.764346 344.106891 
L 395.122857 344.106891 
L 395.122857 326.381569 
L 389.764346 326.381569 
z
" clip-path="url(#pc93f587c76)" style="fill: #e1a33c"/>
   </g>
   <g id="patch_366">
    <path d="M 395.718247 344.403301 
L 401.076758 344.403301 
L 401.076758 332.724745 
L 395.718247 332.724745 
z
" clip-path="url(#pc93f587c76)" style="fill: #e1a33c"/>
   </g>
   <g id="patch_367">
    <path d="M 401.672148 343.988327 
L 407.030659 343.988327 
L 407.030659 324.780955 
L 401.672148 324.780955 
z
" clip-path="url(#pc93f587c76)" style="fill: #e1a33c"/>
   </g>
   <g id="patch_368">
    <path d="M 407.626049 350.450067 
L 412.98456 350.450067 
L 412.98456 333.317565 
L 407.626049 333.317565 
z
" clip-path="url(#pc93f587c76)" style="fill: #e1a33c"/>
   </g>
   <g id="patch_369">
    <path d="M 413.57995 345.529659 
L 418.938461 345.529659 
L 418.938461 323.713879 
L 413.57995 323.713879 
z
" clip-path="url(#pc93f587c76)" style="fill: #e1a33c"/>
   </g>
   <g id="patch_370">
    <path d="M 419.533851 350.094374 
L 424.892362 350.094374 
L 424.892362 332.546899 
L 419.533851 332.546899 
z
" clip-path="url(#pc93f587c76)" style="fill: #e1a33c"/>
   </g>
   <g id="patch_371">
    <path d="M 425.487752 345.470377 
L 430.846263 345.470377 
L 430.846263 327.507927 
L 425.487752 327.507927 
z
" clip-path="url(#pc93f587c76)" style="fill: #e1a33c"/>
   </g>
   <g id="patch_372">
    <path d="M 431.441653 351.280015 
L 436.800164 351.280015 
L 436.800164 340.075714 
L 431.441653 340.075714 
z
" clip-path="url(#pc93f587c76)" style="fill: #e1a33c"/>
   </g>
   <g id="patch_373">
    <path d="M 437.395554 342.802687 
L 442.754065 342.802687 
L 442.754065 342.802687 
L 437.395554 342.802687 
z
" clip-path="url(#pc93f587c76)" style="fill: #e1a33c"/>
   </g>
   <g id="patch_374">
    <path d="M 443.349455 344.581147 
L 448.707966 344.581147 
L 448.707966 344.581147 
L 443.349455 344.581147 
z
" clip-path="url(#pc93f587c76)" style="fill: #e1a33c"/>
   </g>
   <g id="patch_375">
    <path d="M 449.303356 351.991399 
L 454.661867 351.991399 
L 454.661867 341.261354 
L 449.303356 341.261354 
z
" clip-path="url(#pc93f587c76)" style="fill: #e1a33c"/>
   </g>
   <g id="patch_376">
    <path d="M 455.257257 348.375196 
L 460.615768 348.375196 
L 460.615768 336.578075 
L 455.257257 336.578075 
z
" clip-path="url(#pc93f587c76)" style="fill: #e1a33c"/>
   </g>
   <g id="patch_377">
    <path d="M 461.211158 347.01171 
L 466.569669 347.01171 
L 466.569669 330.353464 
L 461.211158 330.353464 
z
" clip-path="url(#pc93f587c76)" style="fill: #e1a33c"/>
   </g>
   <g id="patch_378">
    <path d="M 467.165059 352.287809 
L 472.523569 352.287809 
L 472.523569 336.222383 
L 467.165059 336.222383 
z
" clip-path="url(#pc93f587c76)" style="fill: #e1a33c"/>
   </g>
   <g id="patch_379">
    <path d="M 473.11896 349.6794 
L 478.47747 349.6794 
L 478.47747 333.613975 
L 473.11896 333.613975 
z
" clip-path="url(#pc93f587c76)" style="fill: #e1a33c"/>
   </g>
   <g id="patch_380">
    <path d="M 479.072861 349.205144 
L 484.431371 349.205144 
L 484.431371 339.36433 
L 479.072861 339.36433 
z
" clip-path="url(#pc93f587c76)" style="fill: #e1a33c"/>
   </g>
   <g id="patch_381">
    <path d="M 485.026762 352.169245 
L 490.385272 352.169245 
L 490.385272 337.408024 
L 485.026762 337.408024 
z
" clip-path="url(#pc93f587c76)" style="fill: #e1a33c"/>
   </g>
   <g id="patch_382">
    <path d="M 490.980663 351.991399 
L 496.339173 351.991399 
L 496.339173 339.423612 
L 490.980663 339.423612 
z
" clip-path="url(#pc93f587c76)" style="fill: #e1a33c"/>
   </g>
   <g id="patch_383">
    <path d="M 496.934564 345.588941 
L 502.293074 345.588941 
L 502.293074 327.448645 
L 496.934564 327.448645 
z
" clip-path="url(#pc93f587c76)" style="fill: #e1a33c"/>
   </g>
   <g id="patch_384">
    <path d="M 502.888465 352.406373 
L 508.246975 352.406373 
L 508.246975 340.609252 
L 502.888465 340.609252 
z
" clip-path="url(#pc93f587c76)" style="fill: #e1a33c"/>
   </g>
   <g id="patch_385">
    <path d="M 508.842366 349.38299 
L 514.200876 349.38299 
L 514.200876 335.688845 
L 508.842366 335.688845 
z
" clip-path="url(#pc93f587c76)" style="fill: #e1a33c"/>
   </g>
   <g id="patch_386">
    <path d="M 514.796267 353.532731 
L 520.154777 353.532731 
L 520.154777 339.601458 
L 514.796267 339.601458 
z
" clip-path="url(#pc93f587c76)" style="fill: #e1a33c"/>
   </g>
   <g id="patch_387">
    <path d="M 520.750168 361.654367 
L 526.108678 361.654367 
L 526.108678 334.088231 
L 520.750168 334.088231 
z
" clip-path="url(#pc93f587c76)" style="fill: #e1a33c"/>
   </g>
   <g id="patch_388">
    <path d="M 526.704069 352.524937 
L 532.062579 352.524937 
L 532.062579 339.482894 
L 526.704069 339.482894 
z
" clip-path="url(#pc93f587c76)" style="fill: #e1a33c"/>
   </g>
   <g id="patch_389">
    <path d="M 532.657969 351.932117 
L 538.01648 351.932117 
L 538.01648 344.403301 
L 532.657969 344.403301 
z
" clip-path="url(#pc93f587c76)" style="fill: #e1a33c"/>
   </g>
   <g id="patch_390">
    <path d="M 538.61187 351.457861 
L 543.970381 351.457861 
L 543.970381 337.58587 
L 538.61187 337.58587 
z
" clip-path="url(#pc93f587c76)" style="fill: #e1a33c"/>
   </g>
   <g id="patch_391">
    <path d="M 544.565771 355.429756 
L 549.924282 355.429756 
L 549.924282 341.617047 
L 544.565771 341.617047 
z
" clip-path="url(#pc93f587c76)" style="fill: #e1a33c"/>
   </g>
   <g id="patch_392">
    <path d="M 550.519672 359.816625 
L 555.878183 359.816625 
L 555.878183 347.367402 
L 550.519672 347.367402 
z
" clip-path="url(#pc93f587c76)" style="fill: #e1a33c"/>
   </g>
   <g id="patch_393">
    <path d="M 556.473573 358.334574 
L 561.832084 358.334574 
L 561.832084 348.315914 
L 556.473573 348.315914 
z
" clip-path="url(#pc93f587c76)" style="fill: #e1a33c"/>
   </g>
   <g id="patch_394">
    <path d="M 562.427474 359.757343 
L 567.785985 359.757343 
L 567.785985 352.287809 
L 562.427474 352.287809 
z
" clip-path="url(#pc93f587c76)" style="fill: #e1a33c"/>
   </g>
   <g id="patch_395">
    <path d="M 568.381375 374.4 
L 573.739886 374.4 
L 573.739886 374.4 
L 568.381375 374.4 
z
" clip-path="url(#pc93f587c76)" style="fill: #e1a33c"/>
   </g>
   <g id="patch_396">
    <path d="M 574.335276 374.4 
L 579.693787 374.4 
L 579.693787 374.4 
L 574.335276 374.4 
z
" clip-path="url(#pc93f587c76)" style="fill: #e1a33c"/>
   </g>
   <g id="patch_397">
    <path d="M 580.289177 374.4 
L 585.647688 374.4 
L 585.647688 374.4 
L 580.289177 374.4 
z
" clip-path="url(#pc93f587c76)" style="fill: #e1a33c"/>
   </g>
   <g id="patch_398">
    <path d="M 586.243078 374.4 
L 591.601589 374.4 
L 591.601589 374.4 
L 586.243078 374.4 
z
" clip-path="url(#pc93f587c76)" style="fill: #e1a33c"/>
   </g>
   <g id="patch_399">
    <path d="M 592.196979 374.4 
L 597.55549 374.4 
L 597.55549 374.4 
L 592.196979 374.4 
z
" clip-path="url(#pc93f587c76)" style="fill: #e1a33c"/>
   </g>
   <g id="patch_400">
    <path d="M 598.15088 374.4 
L 603.509391 374.4 
L 603.509391 374.4 
L 598.15088 374.4 
z
" clip-path="url(#pc93f587c76)" style="fill: #e1a33c"/>
   </g>
   <g id="patch_401">
    <path d="M 604.104781 374.4 
L 609.463292 374.4 
L 609.463292 374.4 
L 604.104781 374.4 
z
" clip-path="url(#pc93f587c76)" style="fill: #e1a33c"/>
   </g>
   <g id="patch_402">
    <path d="M 610.058682 374.4 
L 615.417193 374.4 
L 615.417193 374.4 
L 610.058682 374.4 
z
" clip-path="url(#pc93f587c76)" style="fill: #e1a33c"/>
   </g>
   <g id="patch_403">
    <path d="M 616.012583 374.4 
L 621.371094 374.4 
L 621.371094 374.4 
L 616.012583 374.4 
z
" clip-path="url(#pc93f587c76)" style="fill: #e1a33c"/>
   </g>
   <g id="patch_404">
    <path d="M 621.966484 374.4 
L 627.324995 374.4 
L 627.324995 374.4 
L 621.966484 374.4 
z
" clip-path="url(#pc93f587c76)" style="fill: #e1a33c"/>
   </g>
   <g id="patch_405">
    <path d="M 627.920385 374.4 
L 633.278896 374.4 
L 633.278896 374.4 
L 627.920385 374.4 
z
" clip-path="url(#pc93f587c76)" style="fill: #e1a33c"/>
   </g>
   <g id="patch_406">
    <path d="M 633.874286 374.4 
L 639.232797 374.4 
L 639.232797 374.4 
L 633.874286 374.4 
z
" clip-path="url(#pc93f587c76)" style="fill: #e1a33c"/>
   </g>
   <g id="patch_407">
    <path d="M 639.828187 374.4 
L 645.186698 374.4 
L 645.186698 374.4 
L 639.828187 374.4 
z
" clip-path="url(#pc93f587c76)" style="fill: #e1a33c"/>
   </g>
   <g id="matplotlib.axis_3"/>
   <g id="matplotlib.axis_4">
    <g id="ytick_6">
     <g id="line2d_9">
      <g>
       <use xlink:href="#m5d3b2b78f1" x="47.117344" y="374.4" style="fill: #333333; stroke: #333333; stroke-width: 0.8"/>
      </g>
     </g>
     <g id="text_11">
      <text style="fill: #333333; font: 12.5px 'Arial', 'DejaVu Sans', sans-serif; text-anchor: end" x="40.117344" y="378.873633" transform="rotate(-0 40.117344 378.873633)">0</text>
     </g>
    </g>
    <g id="ytick_7">
     <g id="line2d_10">
      <g>
       <use xlink:href="#m5d3b2b78f1" x="47.117344" y="344.758993" style="fill: #333333; stroke: #333333; stroke-width: 0.8"/>
      </g>
     </g>
     <g id="text_12">
      <text style="fill: #333333; font: 12.5px 'Arial', 'DejaVu Sans', sans-serif; text-anchor: end" x="40.117344" y="349.232626" transform="rotate(-0 40.117344 349.232626)">5</text>
     </g>
    </g>
    <g id="ytick_8">
     <g id="line2d_11">
      <g>
       <use xlink:href="#m5d3b2b78f1" x="47.117344" y="315.117987" style="fill: #333333; stroke: #333333; stroke-width: 0.8"/>
      </g>
     </g>
     <g id="text_13">
      <text style="fill: #333333; font: 12.5px 'Arial', 'DejaVu Sans', sans-serif; text-anchor: end" x="40.117344" y="319.591619" transform="rotate(-0 40.117344 319.591619)">10</text>
     </g>
    </g>
    <g id="ytick_9">
     <g id="line2d_12">
      <g>
       <use xlink:href="#m5d3b2b78f1" x="47.117344" y="285.47698" style="fill: #333333; stroke: #333333; stroke-width: 0.8"/>
      </g>
     </g>
     <g id="text_14">
      <text style="fill: #333333; font: 12.5px 'Arial', 'DejaVu Sans', sans-serif; text-anchor: end" x="40.117344" y="289.950613" transform="rotate(-0 40.117344 289.950613)">15</text>
     </g>
    </g>
    <g id="ytick_10">
     <g id="line2d_13">
      <g>
       <use xlink:href="#m5d3b2b78f1" x="47.117344" y="255.835973" style="fill: #333333; stroke: #333333; stroke-width: 0.8"/>
      </g>
     </g>
     <g id="text_15">
      <text style="fill: #333333; font: 12.5px 'Arial', 'DejaVu Sans', sans-serif; text-anchor: end" x="40.117344" y="260.309606" transform="rotate(-0 40.117344 260.309606)">20</text>
     </g>
    </g>
    <g id="ytick_11">
     <g id="line2d_14">
      <g>
       <use xlink:href="#m5d3b2b78f1" x="47.117344" y="226.194966" style="fill: #333333; stroke: #333333; stroke-width: 0.8"/>
      </g>
     </g>
     <g id="text_16">
      <text style="fill: #333333; font: 12.5px 'Arial', 'DejaVu Sans', sans-serif; text-anchor: end" x="40.117344" y="230.668599" transform="rotate(-0 40.117344 230.668599)">25</text>
     </g>
    </g>
    <g id="text_17">
     <text style="fill: #333333; font: 16px 'Arial', 'DejaVu Sans', sans-serif; text-anchor: middle" x="18.8475" y="295.262069" transform="rotate(-90 18.8475 295.262069)">Time (min)</text>
    </g>
   </g>
   <g id="patch_408">
    <path d="M 47.117344 374.4 
L 47.117344 216.124138 
" style="fill: none; stroke: #4d4d4d; stroke-linejoin: miter; stroke-linecap: square"/>
   </g>
   <g id="patch_409">
    <path d="M 47.117344 374.4 
L 648.461344 374.4 
" style="fill: none; stroke: #4d4d4d; stroke-linejoin: miter; stroke-linecap: square"/>
   </g>
   <g id="text_18">
    <text style="fill: #767676; font: 14px 'Arial', 'DejaVu Sans', sans-serif; text-anchor: end" x="642.507443" y="313.46934" transform="rotate(-0 642.507443 313.46934)">mean 9.8m </text>
   </g>
   <g id="text_19">
    <text style="fill: #767676; font: 14px 'Arial', 'DejaVu Sans', sans-serif; text-anchor: middle" x="606.784037" y="399.457144" transform="rotate(-0 606.784037 399.457144)">13 no code</text>
   </g>
   <g id="line2d_15">
    <path d="M 568.08368 376.774138 
L 568.08368 384.687931 
L 645.484393 384.687931 
L 645.484393 376.774138 
" style="fill: none; stroke: #767676; stroke-linecap: square"/>
   </g>
  </g>
 </g>
 <defs>
  <clipPath id="p6340c2a1d5">
   <rect x="47.117344" y="7.2" width="601.344" height="158.275862"/>
  </clipPath>
  <clipPath id="pc93f587c76">
   <rect x="47.117344" y="216.124138" width="601.344" height="158.275862"/>
  </clipPath>
 </defs>
</svg>
